<?xml version="1.0" encoding="utf-8"?>
<!-- Generator: Adobe Illustrator 25.0.1, SVG Export Plug-In . SVG Version: 6.00 Build 0)  -->
<svg version="1.1" id="Layer_1" xmlns="http://www.w3.org/2000/svg" xmlns:xlink="http://www.w3.org/1999/xlink" x="0px" y="0px"
	 viewBox="0 0 1263 378.9" style="enable-background:new 0 0 1263 378.9;" xml:space="preserve">
<style type="text/css">
	.st0{fill:#7791FB;}
	.st1{fill:#7889FB;}
	.st2{clip-path:url(#SVGID_2_);}
	.st3{fill:#C5D9FE;}
	.st4{fill:url(#Path_298_1_);}
	.st5{fill:url(#Path_299_1_);}
	.st6{fill:url(#Path_300_1_);}
	.st7{fill:url(#Path_301_1_);}
	.st8{fill:url(#Path_302_1_);}
	.st9{fill:url(#Path_303_1_);}
	.st10{fill:url(#Path_304_1_);}
	.st11{fill:url(#Path_305_1_);}
	.st12{fill:url(#Path_306_1_);}
	.st13{fill:url(#Path_307_1_);}
	.st14{clip-path:url(#SVGID_4_);}
	.st15{fill:#EAF2FD;}
	.st16{fill:url(#Path_309_1_);}
	.st17{fill:url(#Path_311_1_);}
	.st18{fill:url(#Path_312_1_);}
	.st19{fill:url(#Path_313_1_);}
	.st20{fill:url(#Path_314_1_);}
	.st21{fill:url(#Path_316_1_);}
	.st22{fill:url(#Path_317_1_);}
	.st23{fill:url(#Path_318_1_);}
	.st24{fill:url(#Path_319_1_);}
	.st25{fill:#83E8FE;}
	.st26{fill:url(#Path_333_1_);}
	.st27{fill:url(#Path_334_1_);}
	.st28{fill:url(#Path_335_1_);}
	.st29{fill:url(#Path_336_1_);}
	.st30{fill:url(#Path_337_1_);}
	.st31{fill:url(#Path_338_1_);}
	.st32{fill:url(#Path_339_1_);}
	.st33{clip-path:url(#SVGID_6_);}
	.st34{fill:url(#Ellipse_1_1_);}
	.st35{fill-rule:evenodd;clip-rule:evenodd;fill:#FFFFFF;}
	.st36{fill-rule:evenodd;clip-rule:evenodd;fill:url(#Path_341_1_);}
	.st37{fill-rule:evenodd;clip-rule:evenodd;fill:#C1CDF8;}
	.st38{fill-rule:evenodd;clip-rule:evenodd;fill:url(#Path_343_1_);}
	.st39{fill:url(#Ellipse_2_1_);}
	.st40{fill-rule:evenodd;clip-rule:evenodd;fill:url(#Path_345_1_);}
	.st41{fill-rule:evenodd;clip-rule:evenodd;fill:url(#Path_347_1_);}
	.st42{clip-path:url(#SVGID_8_);}
	.st43{fill:#DFAA86;}
	.st44{fill:#080C01;}
	.st45{fill:#39355F;}
	.st46{fill:#7400BA;}
	.st47{fill:#FFFFEB;}
	.st48{fill:#CD8B68;}
	.st49{fill:#813DB6;}
	.st50{fill:#E6A984;}
	.st51{clip-path:url(#SVGID_10_);}
	.st52{fill:url(#Path_363_1_);}
	.st53{fill:url(#Path_364_1_);}
	.st54{fill:url(#Path_365_1_);}
	.st55{fill:#C1CDF8;}
	.st56{fill-rule:evenodd;clip-rule:evenodd;fill:#83E8FE;}
	.st57{fill-rule:evenodd;clip-rule:evenodd;fill:url(#Path_370_1_);}
	.st58{fill-rule:evenodd;clip-rule:evenodd;fill:url(#Path_373_1_);}
	.st59{fill:url(#Path_374_1_);}
	.st60{fill-rule:evenodd;clip-rule:evenodd;fill:url(#Path_382_1_);}
	.st61{fill:#4981FB;}
	.st62{fill:#FFFFFF;}
	.st63{fill:url(#Path_392_1_);}
	.st64{fill:url(#Path_393_1_);}
	.st65{clip-path:url(#SVGID_12_);}
	.st66{fill:url(#Path_396_1_);}
	.st67{fill:url(#Path_398_1_);}
	.st68{fill:url(#Path_401_1_);}
	.st69{fill:url(#Path_403_1_);}
	.st70{clip-path:url(#SVGID_14_);}
	.st71{fill:#675BDA;}
	.st72{fill:#22223A;}
	.st73{fill:#4556C5;}
	.st74{fill:#B5B8FC;}
	.st75{fill:#D5A69B;}
	.st76{fill:#EDC3B6;}
	.st77{fill-rule:evenodd;clip-rule:evenodd;fill:#CF8720;}
	.st78{clip-path:url(#SVGID_16_);}
	.st79{fill:url(#Path_424_1_);}
	.st80{fill:url(#Path_427_1_);}
	.st81{fill:url(#Path_428_1_);}
	.st82{fill:url(#Path_429_1_);}
	.st83{fill:url(#Path_431_1_);}
	.st84{fill:url(#Path_434_1_);}
	.st85{fill:url(#Path_435_1_);}
	.st86{fill:url(#Path_436_1_);}
	.st87{clip-path:url(#SVGID_18_);}
	.st88{fill:#794458;}
	.st89{fill:#31314F;}
	.st90{fill:#48486A;}
	.st91{fill:url(#Path_450_1_);}
	.st92{fill:#4B486C;}
	.st93{fill:#995E73;}
	.st94{fill:url(#Path_453_1_);}
	.st95{clip-path:url(#SVGID_20_);}
	.st96{fill:#2B155E;}
	.st97{fill:#313974;}
	.st98{fill:#CA9270;}
	.st99{fill-rule:evenodd;clip-rule:evenodd;fill:#9E5E17;}
	.st100{clip-path:url(#SVGID_22_);}
	.st101{fill:url(#Path_472_1_);}
	.st102{fill:#E7C650;}
	.st103{fill:url(#Path_474_1_);}
	.st104{fill:#9E99F8;}
	.st105{fill:url(#Path_480_1_);}
	.st106{fill:url(#Path_483_1_);}
	.st107{fill:url(#Path_486_1_);}
	.st108{fill:url(#Path_489_1_);}
	.st109{fill:url(#Ellipse_8_1_);}
	.st110{fill-rule:evenodd;clip-rule:evenodd;fill:#2B155E;}
	.st111{opacity:0.72;fill:#7872FC;enable-background:new    ;}
	.st112{opacity:0.78;fill:#7977FC;enable-background:new    ;}
	.st113{fill:#7974FC;}
</style>
<path class="st0" d="M1263,75.9H0v217.4c0,0,113.8-42.4,316.8-47.5c403.2-10.2,391.7,94.1,662.4,96.5c216,2,283.8-49,283.8-49V75.9z
	"/>
<path class="st1" d="M1263,152.8c0,0-36.8,100.7-99,113.7c-62.2,13-211.3-135.8-306.8-123.3c-103.2,13.5-238.5,78.2-345.8,78.2
	c-77.5,0-183.5-95.6-255.6-104.3C183.2,108.4,0,152.8,0,152.8V0h1263V152.8z"/>
<g>
	<defs>
		<rect id="SVGID_1_" x="773.4" y="-33" width="373.7" height="373.7"/>
	</defs>
	<clipPath id="SVGID_2_">
		<use xlink:href="#SVGID_1_"  style="overflow:visible;"/>
	</clipPath>
	<g id="Group_131" class="st2">
		<g id="Group_125">
			<path id="Path_294" class="st3" d="M1080.5,87.7l10.8-6.2c1.8-1,1.8-2.7,0-3.7l-46.6-26.9c-2-1-4.4-1-6.4,0l-27.7,16
				c-2,1-4.4,1-6.4,0L988.9,58c-2-1-4.4-1-6.4,0l-24.3,14c-1.8,1-1.8,2.7,0,3.7l24.3,14c2,1,4.4,1,6.4,0l5.4-3.1c2-1,4.4-1,6.4,0
				l37.6,21.7c2,1,4.4,1,6.4,0l8.4-4.9c2-1,4.4-1,6.4,0l11.6,6.7c2,1,4.4,1,6.4,0l14.7-8.5c1.8-1,1.8-2.7,0-3.7l-11.6-6.7
				C1078.7,90.3,1078.7,88.7,1080.5,87.7z"/>
			<path id="Path_295" class="st3" d="M1032.2,122.4l5.4,3.1c2,1,4.4,1,6.4,0l5.4-3.1c1.8-1,1.8-2.7,0-3.7l-5.4-3.1
				c-2-1-4.4-1-6.4,0l-5.4,3.1C1030.4,119.7,1030.4,121.4,1032.2,122.4z"/>
			<path id="Path_296" class="st3" d="M1023.5,51.3l-5.4-3.1c-2-1-4.4-1-6.4,0l-5.4,3.1c-1.8,1-1.8,2.7,0,3.7l5.4,3.1
				c2,1,4.4,1,6.4,0l5.4-3.1C1025.3,54,1025.3,52.4,1023.5,51.3z"/>
			<path id="Path_297" class="st3" d="M1083.7,57.8l-7.1-4.1c-2.6-1.3-5.8-1.3-8.4,0l-7.1,4.1c-2.3,1.3-2.3,3.5,0,4.9l7.1,4.1
				c2.6,1.3,5.8,1.3,8.4,0l7.1-4.1C1086,61.3,1086,59.1,1083.7,57.8z"/>
		</g>
		<g id="Group_130">
			<g id="Group_127">
				<g id="Group_126">
					
						<linearGradient id="Path_298_1_" gradientUnits="userSpaceOnUse" x1="26.5944" y1="386.2798" x2="30.3077" y2="388.3427" gradientTransform="matrix(18.57 0 0 -20.287 388.74 7885.1152)">
						<stop  offset="0" style="stop-color:#4981FB;stop-opacity:0"/>
						<stop  offset="0.211" style="stop-color:#6690FB;stop-opacity:0.212"/>
						<stop  offset="0.562" style="stop-color:#91A5FB;stop-opacity:0.561"/>
						<stop  offset="0.836" style="stop-color:#ACB3FC;stop-opacity:0.839"/>
						<stop  offset="0.999" style="stop-color:#B5B8FC"/>
					</linearGradient>
					<path id="Path_298" class="st4" d="M890.7,43.6l8.3,4.8c1.5,0.9,2.8-0.1,2.8-2.1v-2.3c0-2-1.2-4.4-2.8-5.3l-8.3-4.8
						c-1.5-0.9-2.8,0.1-2.8,2.1v2.3C887.9,40.4,889.2,42.8,890.7,43.6z"/>
					
						<linearGradient id="Path_299_1_" gradientUnits="userSpaceOnUse" x1="14.876" y1="387.1211" x2="16.9995" y2="388.5988" gradientTransform="matrix(32.47 0 0 -28.317 411.08 11029.708)">
						<stop  offset="0" style="stop-color:#4981FB;stop-opacity:0"/>
						<stop  offset="0.211" style="stop-color:#6690FB;stop-opacity:0.212"/>
						<stop  offset="0.562" style="stop-color:#91A5FB;stop-opacity:0.561"/>
						<stop  offset="0.836" style="stop-color:#ACB3FC;stop-opacity:0.839"/>
						<stop  offset="0.999" style="stop-color:#B5B8FC"/>
					</linearGradient>
					<path id="Path_299" class="st5" d="M926.1,54.4l-18.7-10.8c-1.5-0.9-2.8,0.1-2.8,2.1V48c0,2,1.2,4.4,2.8,5.3l18.7,10.8
						c1.5,0.9,2.8-0.1,2.8-2.1v-2.3C928.9,57.7,927.7,55.3,926.1,54.4z"/>
					
						<linearGradient id="Path_300_1_" gradientUnits="userSpaceOnUse" x1="9.2201" y1="387.7486" x2="10.4781" y2="388.958" gradientTransform="matrix(54.81 0 0 -34.6 388.74 13483.6826)">
						<stop  offset="0" style="stop-color:#4981FB;stop-opacity:0"/>
						<stop  offset="0.211" style="stop-color:#6690FB;stop-opacity:0.212"/>
						<stop  offset="0.562" style="stop-color:#91A5FB;stop-opacity:0.561"/>
						<stop  offset="0.836" style="stop-color:#ACB3FC;stop-opacity:0.839"/>
						<stop  offset="0.999" style="stop-color:#B5B8FC"/>
					</linearGradient>
					<path id="Path_300" class="st6" d="M887.9,48.2l41,23.7v-2.2l-41-23.6V48.2z"/>
					
						<linearGradient id="Path_301_1_" gradientUnits="userSpaceOnUse" x1="13.0522" y1="387.1949" x2="14.8394" y2="388.855" gradientTransform="matrix(38.58 0 0 -25.22 388.74 9829.6807)">
						<stop  offset="0" style="stop-color:#4981FB;stop-opacity:0"/>
						<stop  offset="0.211" style="stop-color:#6690FB;stop-opacity:0.212"/>
						<stop  offset="0.562" style="stop-color:#91A5FB;stop-opacity:0.561"/>
						<stop  offset="0.836" style="stop-color:#ACB3FC;stop-opacity:0.839"/>
						<stop  offset="0.999" style="stop-color:#B5B8FC"/>
					</linearGradient>
					<path id="Path_301" class="st7" d="M887.9,51.3l28.8,16.6v-2.2l-28.8-16.6V51.3z"/>
				</g>
				
					<linearGradient id="Path_302_1_" gradientUnits="userSpaceOnUse" x1="8.577" y1="388.3171" x2="9.7789" y2="388.9308" gradientTransform="matrix(57.36 0 0 -68.1936 387.46 26524.1719)">
					<stop  offset="0" style="stop-color:#4981FB;stop-opacity:0"/>
					<stop  offset="0.211" style="stop-color:#6690FB;stop-opacity:0.212"/>
					<stop  offset="0.562" style="stop-color:#91A5FB;stop-opacity:0.561"/>
					<stop  offset="0.836" style="stop-color:#ACB3FC;stop-opacity:0.839"/>
					<stop  offset="0.999" style="stop-color:#B5B8FC"/>
				</linearGradient>
				<path id="Path_302" class="st8" d="M927.3,51l-37.7-21.8c-1.4-0.8-2.6-3.1-2.6-5V2.6c0-1.9,1.2-2.8,2.6-2l37.7,21.8
					c1.4,0.8,2.6,3.1,2.6,5V49C929.9,50.9,928.7,51.8,927.3,51z"/>
			</g>
			<g id="Group_129">
				<g id="Group_128">
					
						<linearGradient id="Path_303_1_" gradientUnits="userSpaceOnUse" x1="23.049" y1="388.328" x2="26.331" y2="390.2699" gradientTransform="matrix(18.57 0 0 -20.287 662.5599 8043.0767)">
						<stop  offset="0" style="stop-color:#4981FB;stop-opacity:0"/>
						<stop  offset="0.211" style="stop-color:#6690FB;stop-opacity:0.212"/>
						<stop  offset="0.562" style="stop-color:#91A5FB;stop-opacity:0.561"/>
						<stop  offset="0.836" style="stop-color:#ACB3FC;stop-opacity:0.839"/>
						<stop  offset="0.999" style="stop-color:#B5B8FC"/>
					</linearGradient>
					<path id="Path_303" class="st9" d="M1095.4,161.7l8.3,4.8c1.5,0.9,2.8-0.1,2.8-2.1v-2.3c0-2-1.2-4.4-2.8-5.3l-8.3-4.8
						c-1.5-0.9-2.8,0.1-2.8,2.1v2.3C1092.6,158.5,1093.9,160.8,1095.4,161.7z"/>
					
						<linearGradient id="Path_304_1_" gradientUnits="userSpaceOnUse" x1="12.8701" y1="388.5901" x2="14.7469" y2="389.9818" gradientTransform="matrix(32.47 0 0 -28.317 684.91 11187.6758)">
						<stop  offset="0" style="stop-color:#4981FB;stop-opacity:0"/>
						<stop  offset="0.211" style="stop-color:#6690FB;stop-opacity:0.212"/>
						<stop  offset="0.562" style="stop-color:#91A5FB;stop-opacity:0.561"/>
						<stop  offset="0.836" style="stop-color:#ACB3FC;stop-opacity:0.839"/>
						<stop  offset="0.999" style="stop-color:#B5B8FC"/>
					</linearGradient>
					<path id="Path_304" class="st10" d="M1130.8,172.5l-18.7-10.8c-1.5-0.9-2.8,0.1-2.8,2.1v2.3c0,2,1.2,4.4,2.8,5.3l18.7,10.8
						c1.5,0.9,2.8-0.1,2.8-2.1v-2.3C1133.6,175.7,1132.3,173.4,1130.8,172.5z"/>
					
						<linearGradient id="Path_305_1_" gradientUnits="userSpaceOnUse" x1="8.0279" y1="388.9579" x2="9.1393" y2="390.0962" gradientTransform="matrix(54.82 0 0 -34.6 662.56 13641.6523)">
						<stop  offset="0" style="stop-color:#4981FB;stop-opacity:0"/>
						<stop  offset="0.211" style="stop-color:#6690FB;stop-opacity:0.212"/>
						<stop  offset="0.562" style="stop-color:#91A5FB;stop-opacity:0.561"/>
						<stop  offset="0.836" style="stop-color:#ACB3FC;stop-opacity:0.839"/>
						<stop  offset="0.999" style="stop-color:#B5B8FC"/>
					</linearGradient>
					<path id="Path_305" class="st11" d="M1092.6,166.2l41,23.7v-2.2l-41-23.7V166.2z"/>
					
						<linearGradient id="Path_306_1_" gradientUnits="userSpaceOnUse" x1="11.356" y1="388.8562" x2="12.9354" y2="390.4184" gradientTransform="matrix(38.58 0 0 -25.22 662.56 9987.6504)">
						<stop  offset="0" style="stop-color:#4981FB;stop-opacity:0"/>
						<stop  offset="0.211" style="stop-color:#6690FB;stop-opacity:0.212"/>
						<stop  offset="0.562" style="stop-color:#91A5FB;stop-opacity:0.561"/>
						<stop  offset="0.836" style="stop-color:#ACB3FC;stop-opacity:0.839"/>
						<stop  offset="0.999" style="stop-color:#B5B8FC"/>
					</linearGradient>
					<path id="Path_306" class="st12" d="M1092.6,169.4l28.8,16.6v-2.2l-28.8-16.6V169.4z"/>
				</g>
				
					<linearGradient id="Path_307_1_" gradientUnits="userSpaceOnUse" x1="7.4311" y1="388.9179" x2="8.494" y2="389.4957" gradientTransform="matrix(57.36 0 0 -68.1936 661.29 26682.1289)">
					<stop  offset="0" style="stop-color:#4981FB;stop-opacity:0"/>
					<stop  offset="0.211" style="stop-color:#6690FB;stop-opacity:0.212"/>
					<stop  offset="0.562" style="stop-color:#91A5FB;stop-opacity:0.561"/>
					<stop  offset="0.836" style="stop-color:#ACB3FC;stop-opacity:0.839"/>
					<stop  offset="0.999" style="stop-color:#B5B8FC"/>
				</linearGradient>
				<path id="Path_307" class="st13" d="M1131.9,169.1l-37.7-21.8c-1.4-0.8-2.6-3.1-2.6-5v-21.7c0-1.9,1.2-2.8,2.6-2l37.7,21.8
					c1.4,0.8,2.6,3.1,2.6,5v21.7C1134.5,169,1133.4,169.9,1131.9,169.1z"/>
			</g>
		</g>
	</g>
</g>
<g>
	<defs>
		<rect id="SVGID_3_" x="773.4" y="-33" width="373.7" height="373.7"/>
	</defs>
	<clipPath id="SVGID_4_">
		<use xlink:href="#SVGID_3_"  style="overflow:visible;"/>
	</clipPath>
	<g id="Group_138" class="st14">
		<g id="Group_135">
			<g id="Group_132">
				<path id="Path_308" class="st15" d="M1073.5,161.7l14.7-8.5c4.7-2.7,4.7-7.1,0-9.8l-135-78c-4.7-2.7-12.3-2.7-16.9,0L921.5,74
					c-4.7,2.7-12.3,2.7-16.9,0l-23.7-13.7c-4.7-2.7-12.3-2.7-16.9,0l-52.6,30.4c-4.7,2.7-4.7,7.1,0,9.8l23.7,13.7
					c4.7,2.7,4.7,7.1,0,9.8l-20.2,11.6c-4.7,2.7-4.7,7.1,0,9.8l46.5,26.8c4.7,2.7,12.3,2.7,16.9,0l20.2-11.6
					c4.7-2.7,12.3-2.7,16.9,0l9.8,5.7c4.7,2.7,4.7,7.1,0,9.8l-20.2,11.6c-4.7,2.7-4.7,7.1,0,9.8l44.9,25.9c4.7,2.7,12.3,2.7,16.9,0
					l20.2-11.6c4.7-2.7,12.3-2.7,16.9,0l23.7,13.7c4.7,2.7,12.3,2.7,16.9,0l52.6-30.4c4.7-2.7,4.7-7.1,0-9.8l-23.7-13.7
					C1068.8,168.8,1068.8,164.4,1073.5,161.7z"/>
				
					<linearGradient id="Path_309_1_" gradientUnits="userSpaceOnUse" x1="15.478" y1="388.0807" x2="15.478" y2="389.193" gradientTransform="matrix(28.9775 0 0 -43.85 632.3125 17229.2695)">
					<stop  offset="0" style="stop-color:#E1EAFD;stop-opacity:0"/>
					<stop  offset="0.594" style="stop-color:#CAD6FA;stop-opacity:0.596"/>
					<stop  offset="0.999" style="stop-color:#C1CDF8"/>
				</linearGradient>
				<path id="Path_309" class="st16" d="M1073.5,171.5l18.2,10.5c0-0.1,0-0.1,0-0.1v-32.6l0,0c-0.3,1.5-1.4,2.9-3.4,4l-14.7,8.5
					C1068.8,164.4,1068.8,168.8,1073.5,171.5z"/>
				
					<linearGradient id="Path_311_1_" gradientUnits="userSpaceOnUse" x1="13.1774" y1="389.0963" x2="13.1774" y2="389.7952" gradientTransform="matrix(41.1018 0 0 -237.46 281.6157 92666.5234)">
					<stop  offset="0" style="stop-color:#E1EAFD;stop-opacity:0"/>
					<stop  offset="0.594" style="stop-color:#CAD6FA;stop-opacity:0.596"/>
					<stop  offset="0.999" style="stop-color:#C1CDF8"/>
				</linearGradient>
				<path id="Path_311" class="st17" d="M811.5,140.8c-0.2-1.9,0.9-3.9,3.5-5.3l20.2-11.6c4.7-2.7,4.7-7.1,0-9.8l-23.7-13.7
					c-2-1.1-3.1-2.6-3.4-4l0,0v171.7c-0.4,2,0.7,4.2,3.4,5.7l0.1,0.1L811.5,140.8L811.5,140.8z"/>
				
					<linearGradient id="Path_312_1_" gradientUnits="userSpaceOnUse" x1="39961.2852" y1="1346.337" x2="44806.5938" y2="-998.0286" gradientTransform="matrix(1.000977e-02 0 0 -1.998901e-02 673.28 191.4157)">
					<stop  offset="0" style="stop-color:#FCFDFF"/>
					<stop  offset="0.213" style="stop-color:#EFF5FE"/>
					<stop  offset="0.706" style="stop-color:#D4E5FD"/>
					<stop  offset="0.999" style="stop-color:#CBDFFD"/>
				</linearGradient>
				<path id="Path_312" class="st18" d="M1100.6,190.9L1100.6,190.9C1100.6,190.9,1100.6,190.9,1100.6,190.9L1100.6,190.9
					L1100.6,190.9z"/>
				
					<linearGradient id="Path_313_1_" gradientUnits="userSpaceOnUse" x1="169.1884" y1="8398.4102" x2="215.8273" y2="2395.8203" gradientTransform="matrix(2 0 0 -1.501465e-02 531.67 214.4707)">
					<stop  offset="0" style="stop-color:#FCFDFF"/>
					<stop  offset="0.213" style="stop-color:#EFF5FE"/>
					<stop  offset="0.706" style="stop-color:#D4E5FD"/>
					<stop  offset="0.999" style="stop-color:#CBDFFD"/>
				</linearGradient>
				<path id="Path_313" class="st19" d="M994.8,209.6h1.5C995.8,209.6,995.3,209.6,994.8,209.6z"/>
				
					<linearGradient id="Path_314_1_" gradientUnits="userSpaceOnUse" x1="5.5688" y1="389.3432" x2="5.5688" y2="390.0495" gradientTransform="matrix(86.4543 0 0 -280.7156 586.97 109662.7109)">
					<stop  offset="0" style="stop-color:#E1EAFD;stop-opacity:0"/>
					<stop  offset="0.594" style="stop-color:#CAD6FA;stop-opacity:0.596"/>
					<stop  offset="0.999" style="stop-color:#C1CDF8"/>
				</linearGradient>
				<path id="Path_314" class="st20" d="M1036.1,400.7c3,0.1,5.9-0.6,8.5-2l52.6-30.4c2.7-1.6,3.8-3.7,3.4-5.7V190.9h0
					c-0.3,1.5-1.4,2.9-3.4,4l-52.6,30.4c-2.6,1.4-5.6,2.1-8.5,2l0,0V400.7L1036.1,400.7z"/>
				
					<linearGradient id="Path_316_1_" gradientUnits="userSpaceOnUse" x1="4.9399" y1="389.3078" x2="4.9399" y2="389.9895" gradientTransform="matrix(104.12 0 0 -255.7232 482.84 99940.6719)">
					<stop  offset="0" style="stop-color:#E1EAFD;stop-opacity:0"/>
					<stop  offset="0.28" style="stop-color:#DDE7FD;stop-opacity:9.800000e-02"/>
					<stop  offset="0.515" style="stop-color:#CAD6FA;stop-opacity:0.596"/>
					<stop  offset="0.999" style="stop-color:#C1CDF8"/>
					<stop  offset="1" style="stop-color:#C1CDF8"/>
				</linearGradient>
				<path id="Path_316" class="st21" d="M1027.7,225.3l-23.7-13.7c-2.4-1.3-5-2-7.7-2h-1.5c-2.7,0-5.3,0.7-7.7,2l-20.2,11.6
					c-2.6,1.4-5.6,2.1-8.6,2v173.4c3,0.1,6-0.6,8.6-2l20.2-11.6c2.4-1.3,5-2,7.7-2c3.2-0.2,6.4,0.5,9.2,2l23.7,13.7
					c2.6,1.4,5.5,2.1,8.4,2V227.3l0,0C1033.2,227.4,1030.3,226.7,1027.7,225.3z"/>
				
					<linearGradient id="Path_317_1_" gradientUnits="userSpaceOnUse" x1="6.8014" y1="389.2177" x2="6.8014" y2="389.9271" gradientTransform="matrix(78.6075 0 0 -253.0082 364.72 98813.4062)">
					<stop  offset="0" style="stop-color:#E1EAFD;stop-opacity:0"/>
					<stop  offset="0.594" style="stop-color:#CAD6FA;stop-opacity:0.596"/>
					<stop  offset="0.999" style="stop-color:#C1CDF8"/>
				</linearGradient>
				<path id="Path_317" class="st22" d="M925.2,166.1l-9.8-5.7c-2.8-1.5-5.9-2.2-9-2c-2.8,0-5.5,0.7-7.9,2l-20.2,11.6
					c-2.6,1.4-5.4,2.1-8.3,2v173.4l0,0c2.9,0,5.8-0.7,8.3-2l20.2-11.6c1-0.5,2-1,3.1-1.3v-140h0c-0.1-1.8,1.1-3.7,3.5-5.1l1.3-0.8
					l18.8-10.9C929.9,173.2,929.9,168.8,925.2,166.1z"/>
				
					<linearGradient id="Path_318_1_" gradientUnits="userSpaceOnUse" x1="6.8949" y1="389.4286" x2="6.8949" y2="390.0519" gradientTransform="matrix(75.8443 0 0 -275.6415 406.9657 107686.1719)">
					<stop  offset="0" style="stop-color:#E1EAFD;stop-opacity:0"/>
					<stop  offset="0.594" style="stop-color:#CAD6FA;stop-opacity:0.596"/>
					<stop  offset="0.999" style="stop-color:#C1CDF8"/>
				</linearGradient>
				<path id="Path_318" class="st23" d="M950,223.3L906,197.9l-1-0.6c-2.2-1.3-3.4-3-3.5-4.7h0v140c0,0,0,0,0,0l0,6.7l0,25.7
					c-0.4,2,0.7,4.2,3.4,5.7l44.9,25.9c2.6,1.4,5.4,2.1,8.3,2V225.3C955.4,225.3,952.5,224.6,950,223.3z M926.1,225.3L926.1,225.3
					C926.1,225.3,926.1,225.3,926.1,225.3z"/>
				
					<linearGradient id="Path_319_1_" gradientUnits="userSpaceOnUse" x1="7.0767" y1="389.3706" x2="7.0767" y2="389.994" gradientTransform="matrix(78.33 0 0 -276.5583 286.4 107974.3594)">
					<stop  offset="0" style="stop-color:#E1EAFD;stop-opacity:0"/>
					<stop  offset="0.594" style="stop-color:#CAD6FA;stop-opacity:0.596"/>
					<stop  offset="0.999" style="stop-color:#C1CDF8"/>
				</linearGradient>
				<path id="Path_319" class="st24" d="M870,174.1c-3,0.1-5.9-0.6-8.6-2l-46.5-26.8c-2.1-1.2-3.3-2.8-3.5-4.4h0v133l0,0l0.1,39.1
					c0,0.2-0.1,0.4-0.1,0.6v0.4c0.1,1.7,1.2,3.4,3.5,4.7l46.5,26.8c2.6,1.4,5.6,2.1,8.6,2l0,0V174.1z M837.1,250.4
					c0-0.3,0-0.5,0-0.8V250.4z"/>
			</g>
			<g id="Group_134">
				<path id="Path_320" class="st25" d="M1036.2,221.2c-1.9,0.1-3.7-0.4-5.4-1.2l-23.7-13.7c-7.2-3.8-15.8-3.8-23,0L963.8,218
					c-3.4,1.6-7.4,1.6-10.8,0l-44.2-25.5l19.5-11.3c4.2-2.4,6.5-6.1,6.5-10.2c0-4.1-2.4-7.8-6.5-10.2l-9.8-5.7
					c-7.2-3.8-15.8-3.8-23,0l-20.2,11.6c-3.4,1.6-7.4,1.6-10.8,0l-45.8-26.5l19.5-11.3c4.2-2.4,6.5-6.1,6.5-10.2
					c0-4.1-2.4-7.8-6.5-10.2l-23.1-13.3l0.3-0.2L867,65.5c3.4-1.6,7.4-1.6,10.8,0l23.7,13.7c7.2,3.8,15.8,3.8,23,0l14.7-8.5
					c3.4-1.6,7.4-1.6,10.8,0l134.4,77.6l-14.1,8.1c-4.2,2.4-6.5,6.1-6.5,10.2s2.4,7.8,6.5,10.2l23.1,13.3l-0.3,0.2l-51.7,29.8
					C1039.9,220.9,1038,221.3,1036.2,221.2z M995.5,203.1c4.1-0.1,8.1,0.9,11.7,2.9l23.7,13.7c3.3,1.5,7.2,1.5,10.5,0l51.4-29.7
					l-22.5-13c-4.3-2.5-6.7-6.3-6.7-10.5s2.5-8,6.7-10.5l13.5-7.8L949.9,71.1c-3.3-1.5-7.2-1.5-10.5,0l-14.7,8.5
					c-7.3,3.8-16.1,3.8-23.4,0l-23.7-13.7c-3.3-1.5-7.1-1.5-10.5,0l-51.4,29.7l22.5,13c4.3,2.5,6.7,6.3,6.7,10.5s-2.5,8-6.7,10.5
					l-18.9,10.9l45.3,26.1c3.3,1.5,7.2,1.5,10.5,0l20.2-11.6c7.3-3.8,16.1-3.8,23.4,0l9.8,5.7c4.3,2.5,6.7,6.3,6.7,10.5
					c0,4.2-2.5,8-6.7,10.5l-18.9,10.9l43.7,25.2c3.3,1.5,7.1,1.5,10.5,0l20.2-11.6C987.4,204.1,991.4,203.1,995.5,203.1L995.5,203.1
					z"/>
				<path id="Path_321" class="st25" d="M1035.4,214.5c-1.1,0-2.1-0.2-3-0.8l-17.2-9.9c-0.8-0.3-1.3-1-1.4-1.9c0-0.6,0.4-1.2,1-1.5
					l40.8-23.5c1.7-0.8,3.7-0.7,5.4,0.2l17.2,9.9c0.8,0.3,1.3,1,1.4,1.9c0,0.6-0.4,1.2-1,1.5l-40.8,23.5
					C1037.1,214.3,1036.3,214.5,1035.4,214.5z M1057.9,176.7c-0.8,0-1.5,0.2-2.2,0.5l-40.8,23.5c-0.5,0.2-0.8,0.6-0.8,1.2
					c0.1,0.7,0.5,1.3,1.2,1.5l17.2,9.9c1.5,0.9,3.4,0.9,5,0.2l40.8-23.5c0.5-0.2,0.8-0.6,0.8-1.2c-0.1-0.7-0.5-1.3-1.2-1.5
					l-17.2-9.9C1059.9,177,1058.9,176.7,1057.9,176.7z"/>
				<path id="Path_322" class="st25" d="M850.7,108.2c-1.1,0-2.1-0.2-3-0.8l-17.2-9.9c-0.8-0.3-1.3-1-1.4-1.9c0-0.6,0.4-1.2,1-1.5
					l40.8-23.5c1.7-0.8,3.7-0.7,5.4,0.2l17.2,9.9c0.8,0.3,1.3,1,1.4,1.9c0,0.6-0.4,1.2-1,1.5l-40.8,23.5
					C852.4,108.1,851.6,108.2,850.7,108.2z M873.2,70.5c-0.8,0-1.5,0.2-2.2,0.5l-40.8,23.5c-0.5,0.2-0.8,0.6-0.8,1.2
					c0.1,0.7,0.5,1.3,1.2,1.5l17.2,9.9c1.5,0.9,3.4,0.9,5,0.2l40.8-23.5c0.5-0.2,0.8-0.6,0.8-1.2c-0.1-0.7-0.5-1.3-1.2-1.5
					l-17.2-9.9C875.2,70.7,874.2,70.5,873.2,70.5z"/>
				<g id="Group_133">
					<path id="Path_323" class="st25" d="M946.9,83l-5.9-3.4l5.9-3.4l5.9,3.4L946.9,83z M941.8,79.7l5.1,3l5.1-3l-5.1-3L941.8,79.7z
						"/>
					<path id="Path_324" class="st25" d="M961.6,91.5l-5.9-3.4l5.9-3.4l5.9,3.4L961.6,91.5z M956.4,88.1l5.1,3l5.1-3l-5.1-3
						L956.4,88.1z"/>
					<path id="Path_325" class="st25" d="M976.2,99.9l-5.9-3.4l5.9-3.4l5.9,3.4L976.2,99.9z M971.1,96.6l5.1,3l5.1-3l-5.1-3
						L971.1,96.6z"/>
					<path id="Path_326" class="st25" d="M990.8,108.4L985,105l5.9-3.4l5.9,3.4L990.8,108.4z M985.7,105l5.1,3l5.1-3l-5.1-3
						L985.7,105z"/>
					<path id="Path_327" class="st25" d="M1005.4,116.8l-5.9-3.4l5.9-3.4l5.9,3.4L1005.4,116.8z M1000.3,113.4l5.1,3l5.1-3l-5.1-3
						L1000.3,113.4z"/>
					<path id="Path_328" class="st25" d="M1020.1,125.3l-5.9-3.4l5.9-3.4l5.9,3.4L1020.1,125.3z M1015,121.9l5.1,3l5.1-3l-5.1-3
						L1015,121.9z"/>
					<path id="Path_329" class="st25" d="M1034.7,133.7l-5.9-3.4l5.9-3.4l5.9,3.4L1034.7,133.7z M1029.6,130.3l5.1,3l5.1-3l-5.1-3
						L1029.6,130.3z"/>
					<path id="Path_330" class="st25" d="M1049.3,142.2l-5.9-3.4l5.9-3.4l5.9,3.4L1049.3,142.2z M1044.2,138.8l5.1,3l5.1-3l-5.1-3
						L1044.2,138.8z"/>
					<path id="Path_331" class="st25" d="M1064,150.6l-5.9-3.4l5.9-3.4l5.9,3.4L1064,150.6z M1058.8,147.2l5.1,3l5.1-3l-5.1-3
						L1058.8,147.2z"/>
				</g>
				<path id="Path_332" class="st25" d="M958.3,163.5c-0.6,0-1.2-0.2-1.7-0.5l-39.7-22.9c-1.7-1-2.2-3.1-1.3-4.7
					c0.3-0.5,0.7-1,1.3-1.3l39.7-22.9c1.1-0.6,2.4-0.6,3.5,0l39.7,22.9c1.7,1,2.2,3.1,1.3,4.7c-0.3,0.5-0.7,1-1.3,1.3L960,163.1
					C959.5,163.4,958.9,163.5,958.3,163.5z M956.7,162.7c1,0.5,2.1,0.5,3.1,0l39.7-22.9c1.5-0.9,2-2.7,1.1-4.2
					c-0.3-0.5-0.7-0.9-1.1-1.1l-39.7-22.9c-1-0.6-2.1-0.6-3.1,0L917,134.5c-1.5,0.9-2,2.7-1.1,4.2c0.3,0.5,0.7,0.9,1.1,1.1
					L956.7,162.7z"/>
			</g>
		</g>
		<g id="Group_137">
			
				<linearGradient id="Path_333_1_" gradientUnits="userSpaceOnUse" x1="9.2174" y1="390.4381" x2="7.3593" y2="387.8803" gradientTransform="matrix(53.35 0 0 -36.58 605.81 14493.7451)">
				<stop  offset="0" style="stop-color:#FFFFFF"/>
				<stop  offset="0.338" style="stop-color:#E5EAFC;stop-opacity:0.663"/>
				<stop  offset="0.753" style="stop-color:#CAD5F9;stop-opacity:0.247"/>
				<stop  offset="0.999" style="stop-color:#C1CDF8;stop-opacity:0"/>
			</linearGradient>
			<path id="Path_333" class="st26" d="M1090.1,228.1l-39.9,23v-4.3l39.9-23V228.1z"/>
			
				<linearGradient id="Path_334_1_" gradientUnits="userSpaceOnUse" x1="9.321" y1="390.6822" x2="7.4621" y2="388.1245" gradientTransform="matrix(53.35 0 0 -36.58 605.81 14508.5049)">
				<stop  offset="0" style="stop-color:#FFFFFF"/>
				<stop  offset="0.338" style="stop-color:#E5EAFC;stop-opacity:0.663"/>
				<stop  offset="0.753" style="stop-color:#CAD5F9;stop-opacity:0.247"/>
				<stop  offset="0.999" style="stop-color:#C1CDF8;stop-opacity:0"/>
			</linearGradient>
			<path id="Path_334" class="st27" d="M1090.1,239.1l-39.9,23v-4.3l39.9-23V239.1z"/>
			<g id="Group_136">
				
					<linearGradient id="Path_335_1_" gradientUnits="userSpaceOnUse" x1="94.6063" y1="394.5025" x2="75.2757" y2="383.9754" gradientTransform="matrix(5.13 0 0 -8.89 602.59 3708.4038)">
					<stop  offset="0" style="stop-color:#FFFFFF"/>
					<stop  offset="0.338" style="stop-color:#E5EAFC;stop-opacity:0.663"/>
					<stop  offset="0.753" style="stop-color:#CAD5F9;stop-opacity:0.247"/>
					<stop  offset="0.999" style="stop-color:#C1CDF8;stop-opacity:0"/>
				</linearGradient>
				<path id="Path_335" class="st28" d="M1051.6,238.5l-3.8,2.2v-4.4l3.8-2.2V238.5z"/>
				
					<linearGradient id="Path_336_1_" gradientUnits="userSpaceOnUse" x1="92.1282" y1="393.3924" x2="72.8342" y2="382.8653" gradientTransform="matrix(5.14 0 0 -8.89 616.25 3700.5139)">
					<stop  offset="0" style="stop-color:#FFFFFF"/>
					<stop  offset="0.338" style="stop-color:#E5EAFC;stop-opacity:0.663"/>
					<stop  offset="0.753" style="stop-color:#CAD5F9;stop-opacity:0.247"/>
					<stop  offset="0.999" style="stop-color:#C1CDF8;stop-opacity:0"/>
				</linearGradient>
				<path id="Path_336" class="st29" d="M1061.8,232.6l-3.8,2.2v-4.4l3.8-2.2V232.6z"/>
				
					<linearGradient id="Path_337_1_" gradientUnits="userSpaceOnUse" x1="90.007" y1="392.2823" x2="70.6765" y2="381.7552" gradientTransform="matrix(5.13 0 0 -8.89 629.92 3692.6238)">
					<stop  offset="0" style="stop-color:#FFFFFF"/>
					<stop  offset="0.338" style="stop-color:#E5EAFC;stop-opacity:0.663"/>
					<stop  offset="0.753" style="stop-color:#CAD5F9;stop-opacity:0.247"/>
					<stop  offset="0.999" style="stop-color:#C1CDF8;stop-opacity:0"/>
				</linearGradient>
				<path id="Path_337" class="st30" d="M1072,226.7l-3.8,2.2v-4.4l3.8-2.2V226.7z"/>
				
					<linearGradient id="Path_338_1_" gradientUnits="userSpaceOnUse" x1="87.7068" y1="391.1719" x2="68.3754" y2="380.6448" gradientTransform="matrix(5.13 0 0 -8.89 643.59 3684.7339)">
					<stop  offset="0" style="stop-color:#FFFFFF"/>
					<stop  offset="0.338" style="stop-color:#E5EAFC;stop-opacity:0.663"/>
					<stop  offset="0.753" style="stop-color:#CAD5F9;stop-opacity:0.247"/>
					<stop  offset="0.999" style="stop-color:#C1CDF8;stop-opacity:0"/>
				</linearGradient>
				<path id="Path_338" class="st31" d="M1082.3,220.8l-3.8,2.2v-4.4l3.8-2.2V220.8z"/>
				
					<linearGradient id="Path_339_1_" gradientUnits="userSpaceOnUse" x1="85.2419" y1="390.0619" x2="65.9487" y2="379.5348" gradientTransform="matrix(5.14 0 0 -8.89 657.25 3676.8438)">
					<stop  offset="0" style="stop-color:#FFFFFF"/>
					<stop  offset="0.338" style="stop-color:#E5EAFC;stop-opacity:0.663"/>
					<stop  offset="0.753" style="stop-color:#CAD5F9;stop-opacity:0.247"/>
					<stop  offset="0.999" style="stop-color:#C1CDF8;stop-opacity:0"/>
				</linearGradient>
				<path id="Path_339" class="st32" d="M1092.5,214.9l-3.8,2.2v-4.4l3.8-2.2V214.9z"/>
			</g>
		</g>
	</g>
</g>
<g>
	<defs>
		<rect id="SVGID_5_" x="773.4" y="-33" width="373.7" height="373.7"/>
	</defs>
	<clipPath id="SVGID_6_">
		<use xlink:href="#SVGID_5_"  style="overflow:visible;"/>
	</clipPath>
	<g id="Group_145" class="st33">
		<g id="Group_141">
			
				<radialGradient id="Ellipse_1_1_" cx="18.0334" cy="387.4865" r="0.6884" gradientTransform="matrix(29.42 0 0 -29.42 337.68 11413.4297)" gradientUnits="userSpaceOnUse">
				<stop  offset="0" style="stop-color:#E7F2FE"/>
				<stop  offset="4.200000e-02" style="stop-color:#E5EFFE"/>
				<stop  offset="0.527" style="stop-color:#CAD6FA"/>
				<stop  offset="0.814" style="stop-color:#C1CDF8"/>
				<stop  offset="0.857" style="stop-color:#C8D2F9"/>
				<stop  offset="0.918" style="stop-color:#DBE2FB"/>
				<stop  offset="0.992" style="stop-color:#FBFCFF"/>
				<stop  offset="1" style="stop-color:#FFFFFF"/>
			</radialGradient>
			<circle id="Ellipse_1" class="st34" cx="860.8" cy="19.5" r="11"/>
			<g id="Group_140">
				<g id="Group_139">
					<path id="Path_340" class="st35" d="M835.7,70.3l36.5-21.1l15,8.7L850.7,79L835.7,70.3z"/>
					
						<linearGradient id="Path_341_1_" gradientUnits="userSpaceOnUse" x1="11.2141" y1="389.0101" x2="10.1332" y2="388.3449" gradientTransform="matrix(48.84 0 0 -62.26 338.97 24287.1309)">
						<stop  offset="0" style="stop-color:#E7F2FE"/>
						<stop  offset="5.100000e-02" style="stop-color:#E5EFFE"/>
						<stop  offset="0.646" style="stop-color:#CAD6FA"/>
						<stop  offset="0.999" style="stop-color:#C1CDF8"/>
					</linearGradient>
					<path id="Path_341" class="st36" d="M887.2,57.9v25.5l-36.5,21.1V79L887.2,57.9z"/>
					<path id="Path_342" class="st37" d="M835.7,70.3l15,8.7v25.5l-15-8.7V70.3z"/>
				</g>
				
					<linearGradient id="Path_343_1_" gradientUnits="userSpaceOnUse" x1="11.2457" y1="388.4345" x2="11.2457" y2="389.0871" gradientTransform="matrix(47.31 0 0 -117.9 328.73 45891.1719)">
					<stop  offset="0" style="stop-color:#83E8FE"/>
					<stop  offset="1" style="stop-color:#FFFFFF;stop-opacity:0"/>
				</linearGradient>
				<path id="Path_343" class="st38" d="M843.1,69.9l8.3,4.8L878.4,59V-8.7l-8.3-4.8L843.1,2.2V69.9z"/>
			</g>
		</g>
		<g id="Group_144">
			
				<radialGradient id="Ellipse_2_1_" cx="15.9146" cy="388.6753" r="0.6884" gradientTransform="matrix(29.42 0 0 -29.42 584.51 11551.9102)" gradientUnits="userSpaceOnUse">
				<stop  offset="0" style="stop-color:#E7F2FE"/>
				<stop  offset="4.200000e-02" style="stop-color:#E5EFFE"/>
				<stop  offset="0.527" style="stop-color:#CAD6FA"/>
				<stop  offset="0.814" style="stop-color:#C1CDF8"/>
				<stop  offset="0.857" style="stop-color:#C8D2F9"/>
				<stop  offset="0.918" style="stop-color:#DBE2FB"/>
				<stop  offset="0.992" style="stop-color:#FBFCFF"/>
				<stop  offset="1" style="stop-color:#FFFFFF"/>
			</radialGradient>
			<circle id="Ellipse_2" class="st39" cx="1045.3" cy="123" r="11"/>
			<g id="Group_143">
				<g id="Group_142">
					<path id="Path_344" class="st35" d="M1020.4,176.6l36.5-21.1l15,8.7l-36.5,21.1L1020.4,176.6z"/>
					
						<linearGradient id="Path_345_1_" gradientUnits="userSpaceOnUse" x1="9.9344" y1="389.5867" x2="8.8536" y2="388.9215" gradientTransform="matrix(48.85 0 0 -62.26 586.08 24429.2734)">
						<stop  offset="0" style="stop-color:#E7F2FE"/>
						<stop  offset="5.100000e-02" style="stop-color:#E5EFFE"/>
						<stop  offset="0.646" style="stop-color:#CAD6FA"/>
						<stop  offset="0.999" style="stop-color:#C1CDF8"/>
					</linearGradient>
					<path id="Path_345" class="st40" d="M1072,164.2v25.5l-36.5,21.1v-25.5L1072,164.2z"/>
					<path id="Path_346" class="st37" d="M1020.4,176.6l15,8.7v25.5l-15-8.7L1020.4,176.6z"/>
				</g>
				
					<linearGradient id="Path_347_1_" gradientUnits="userSpaceOnUse" x1="9.9261" y1="388.7372" x2="9.9261" y2="389.3897" gradientTransform="matrix(47.32 0 0 -117.9 575.56 46032.4688)">
					<stop  offset="0" style="stop-color:#83E8FE"/>
					<stop  offset="1" style="stop-color:#FFFFFF;stop-opacity:0"/>
				</linearGradient>
				<path id="Path_347" class="st41" d="M1027.6,175.5l8.3,4.8l27.1-15.7V96.9l-8.3-4.8l-27.1,15.7V175.5z"/>
			</g>
		</g>
	</g>
</g>
<g>
	<defs>
		<rect id="SVGID_7_" x="773.4" y="-33" width="373.7" height="373.7"/>
	</defs>
	<clipPath id="SVGID_8_">
		<use xlink:href="#SVGID_7_"  style="overflow:visible;"/>
	</clipPath>
	<g id="Group_155" class="st42">
		<g id="Group_146">
			<path id="Path_348" class="st43" d="M980.5,101.8L980.5,101.8c1,0.1,1.9-0.6,2-1.6l1.9-17.3c0.1-1-0.6-1.9-1.6-2l0,0
				c-1-0.1-1.9,0.6-2,1.6l-1.9,17.3C978.8,100.8,979.5,101.7,980.5,101.8z"/>
		</g>
		<g id="Group_149">
			<g id="Group_148">
				<g id="Group_147">
					<path id="Path_349" class="st44" d="M990.9,125.6c0,0.2-0.2,0.4-0.5,0.7c-0.1,0.1,0-1.3-0.3-1.1c-0.1,0.1-4.4,3.4-6.9,2.8
						c-0.2-0.1-0.4-0.3-0.4-0.5v-0.5c0-0.6,0.9-1.6,2.3-2.9c1.5-1.5,2.5-2.4,4.8-1.1c0.7,0.4,0.9,0.7,0.9,0.9L990.9,125.6z"/>
					<path id="Path_350" class="st45" d="M985.2,124c-1.8,1.8-2.9,2.9-1.9,3.4c0.9,0.6,2.8-0.3,4.8-1.7c1.7-1.3,4.2-1.5,1.9-2.8
						C987.7,121.6,986.7,122.5,985.2,124z"/>
				</g>
			</g>
			<path id="Path_351" class="st43" d="M987.1,123.1l0.1-16.6l4.6,1.5l0,3c0.2,2.5,0,4.9-0.7,7.3c0,0-0.8,1.6-0.6,5.3
				C990.4,123.6,988.4,124.8,987.1,123.1z"/>
		</g>
		<g id="Group_152">
			<g id="Group_151">
				<g id="Group_150">
					<path id="Path_352" class="st44" d="M985.6,121.2c0,0.2-0.2,0.4-0.5,0.7c-0.1,0.1,0-1.3-0.3-1.1c-0.1,0.1-4.4,3.4-6.9,2.8
						c-0.2-0.1-0.4-0.3-0.4-0.5v-0.5c0-0.6,0.9-1.6,2.3-2.9c1.5-1.5,2.5-2.4,4.8-1.1c0.7,0.4,0.9,0.7,0.9,0.9L985.6,121.2z"/>
					<path id="Path_353" class="st45" d="M979.9,119.6c-1.8,1.8-2.9,2.9-1.9,3.4c0.9,0.6,2.8-0.3,4.8-1.7c1.7-1.3,4.2-1.5,1.9-2.8
						C982.4,117.2,981.4,118.1,979.9,119.6z"/>
				</g>
			</g>
			<path id="Path_354" class="st43" d="M981.8,118.8l0.1-16.6l5.5,1.8l-0.9,2.7c0.2,2.5,0,4.9-0.7,7.3c0,0-0.8,1.6-0.6,5.3
				C985.1,119.2,983.1,120.4,981.8,118.8z"/>
		</g>
		<path id="Path_355" class="st46" d="M994.6,102.6v6.1c0,0-7.2,2.4-14-6.1v-5.9L994.6,102.6z"/>
		<path id="Path_356" class="st47" d="M991.2,105c-0.1,0-0.1,0.1-0.2,0.1c-1.2,0.1-5.5-0.9-9.9-5.7c-0.4-0.4-0.6-0.9-0.6-1.4V84
			c-0.1-0.8,0.3-1.6,1-2.1l3.3-1.9c0.8-0.4,1.6-0.3,2.3,0.2l4.4,2.6c1.9,1.3,3.1,3.4,3.3,5.7v14c0,0.3-0.1,0.5-0.3,0.7L991.2,105z"
			/>
		<g id="Group_153">
			<path id="Path_357" class="st43" d="M993.3,106.2L993.3,106.2c1,0,1.8-0.8,1.8-1.8V87.1c0-1-0.8-1.8-1.8-1.8l0,0
				c-1,0-1.8,0.8-1.8,1.8v17.3C991.5,105.4,992.3,106.2,993.3,106.2z"/>
		</g>
		<path id="Path_358" class="st48" d="M990,83.7c0,0.4-0.3,0.8-0.7,1c-1,0.5-2.2,0.5-3.3,0c-0.4-0.2-0.6-0.5-0.7-1v-3
			c0-0.4,0.3-0.8,0.7-1c1-0.5,2.2-0.5,3.3,0c0.4,0.2,0.6,0.5,0.7,1V83.7z"/>
		<g id="Group_154">
			<path id="Path_359" class="st49" d="M981.8,74.1l-2.3,8.8c-0.1,0.6,0.2,1.1,0.7,1.3c0.2,0.1,0.4,0,0.6,0l5.2-2.2
				c0.5-0.2,0.7-0.7,0.6-1.2l-1.7-8.7c-0.1-0.6-0.7-0.9-1.2-0.8c-0.3,0.1-0.5,0.2-0.7,0.5l-1.2,2C981.9,73.9,981.8,74,981.8,74.1z"
				/>
			<path id="Path_360" class="st50" d="M989.8,79.4c0,0.8,0.5,1.1,1.2,0.7c0.7-0.5,1.1-1.2,1.2-2c0-0.8-0.5-1.1-1.2-0.7
				C990.2,77.8,989.8,78.5,989.8,79.4z"/>
			<circle id="Ellipse_3" class="st43" cx="987.7" cy="75.8" r="6.3"/>
			<path id="Path_361" class="st49" d="M993.8,76.6c0,0-5.4,2.9-8-4.7c-0.8,1.9-2.9,2.9-4.9,2.5c0.1-3,2.2-5.5,5.2-6
				C986.2,68.4,995.3,67.5,993.8,76.6z"/>
			<path id="Path_362" class="st49" d="M990.9,76.9l-2.3,8.8c-0.1,0.6,0.2,1.1,0.7,1.3c0.2,0.1,0.4,0,0.6,0l5.2-2.2
				c0.5-0.2,0.7-0.7,0.6-1.2l-1.7-8.7c-0.1-0.6-0.7-0.9-1.2-0.8c-0.3,0.1-0.5,0.2-0.7,0.5l-1.2,2C991,76.7,990.9,76.8,990.9,76.9z"
				/>
		</g>
	</g>
</g>
<g>
	<defs>
		<rect id="SVGID_9_" x="773.4" y="-33" width="373.7" height="373.7"/>
	</defs>
	<clipPath id="SVGID_10_">
		<use xlink:href="#SVGID_9_"  style="overflow:visible;"/>
	</clipPath>
	<g id="Group_167" class="st51">
		<g id="Group_157">
			
				<linearGradient id="Path_363_1_" gradientUnits="userSpaceOnUse" x1="9.6893" y1="388.5302" x2="7.9918" y2="387.7416" gradientTransform="matrix(54.4334 0 0 -31.3359 406.1733 12284.4736)">
				<stop  offset="0" style="stop-color:#FFFFFF"/>
				<stop  offset="0.614" style="stop-color:#DAE1FB"/>
				<stop  offset="0.999" style="stop-color:#C1CDF8"/>
			</linearGradient>
			<path id="Path_363" class="st52" d="M940.6,111.3l-21.8,12.6c-1.6,0.9-4.4,0.8-6.2-0.3l-10-5.7c-1.8-1.1-2-2.7-0.4-3.6l21.8-12.6
				c1.6-0.9,4.4-0.8,6.2,0.3l10,5.7C942,108.8,942.2,110.4,940.6,111.3z"/>
			<g id="Group_156">
				
					<linearGradient id="Path_364_1_" gradientUnits="userSpaceOnUse" x1="15.0873" y1="388.6249" x2="14.1686" y2="387.929" gradientTransform="matrix(34.47 0 0 -25.3626 426.11 9966.8457)">
					<stop  offset="0" style="stop-color:#E7F2FE"/>
					<stop  offset="5.100000e-02" style="stop-color:#E5EFFE"/>
					<stop  offset="0.646" style="stop-color:#CAD6FA"/>
					<stop  offset="0.999" style="stop-color:#C1CDF8"/>
				</linearGradient>
				<path id="Path_364" class="st53" d="M941.6,114v-3.9l0,0c-0.1,0.6-0.5,1-1,1.3l-21.8,12.6c-0.9,0.5-1.9,0.7-2.9,0.6v4.5
					c1,0.1,2-0.2,2.9-0.6l21.8-12.6C941.3,115.5,941.7,114.7,941.6,114z"/>
				
					<linearGradient id="Path_365_1_" gradientUnits="userSpaceOnUse" x1="25.1873" y1="387.2021" x2="25.1873" y2="388.1686" gradientTransform="matrix(19.9404 0 0 -17.17 406.1796 6779.9092)">
					<stop  offset="7.200000e-02" style="stop-color:#87D0FD"/>
					<stop  offset="0.165" style="stop-color:#7EC3EC;stop-opacity:0.898"/>
					<stop  offset="0.349" style="stop-color:#68A0C0;stop-opacity:0.702"/>
					<stop  offset="0.608" style="stop-color:#456979;stop-opacity:0.424"/>
					<stop  offset="0.927" style="stop-color:#141E18;stop-opacity:7.800000e-02"/>
					<stop  offset="1" style="stop-color:#080C01;stop-opacity:0"/>
				</linearGradient>
				<path id="Path_365" class="st54" d="M912.5,123.7l-10-5.7c-0.7-0.3-1.3-1-1.5-1.8v3.9c-0.2,0.8,0.3,1.7,1.5,2.3l10,5.7
					c1,0.6,2.2,0.9,3.3,0.9v-4.5C914.7,124.5,913.6,124.2,912.5,123.7z"/>
				<path id="Path_366" class="st55" d="M912.5,123.7l-10-5.7c-0.7-0.3-1.3-1-1.5-1.8v3.9c-0.2,0.8,0.3,1.7,1.5,2.3l10,5.7
					c1,0.6,2.2,0.9,3.3,0.9v-4.5C914.7,124.5,913.6,124.2,912.5,123.7z"/>
			</g>
		</g>
		<g id="Group_164">
			<g id="Group_160">
				<g id="Group_158">
					<path id="Path_367" class="st56" d="M958.3,149l-37.4-21.6v9.7l37.4,21.6l37.4-21.6v-9.7L958.3,149z"/>
				</g>
				<path id="Path_368" class="st35" d="M958.3,141.4l-39.7-22.9l39.7-22.9l39.7,22.9L958.3,141.4z"/>
				<path id="Path_369" class="st37" d="M958.3,105.7l24.5,14.2l2.5-1.5l-27.1-15.6l-27.1,15.6l2.5,1.5L958.3,105.7z"/>
				
					<linearGradient id="Path_370_1_" gradientUnits="userSpaceOnUse" x1="8.1358" y1="388.6906" x2="7.3629" y2="388.6577" gradientTransform="matrix(65.61 0 0 -37.88 450.03 14842.8623)">
					<stop  offset="0" style="stop-color:#83E8FE"/>
					<stop  offset="0.184" style="stop-color:#76D0FD"/>
					<stop  offset="0.547" style="stop-color:#5EA5FC"/>
					<stop  offset="0.831" style="stop-color:#4F8BFC"/>
					<stop  offset="0.999" style="stop-color:#4981FB"/>
				</linearGradient>
				<path id="Path_370" class="st57" d="M958.3,105.7l-24.5,14.2l24.5,14.2l24.5-14.2L958.3,105.7z"/>
				<path id="Path_371" class="st37" d="M958.3,110.4L940,120.9l18.3,10.6l18.3-10.6L958.3,110.4z"/>
				<path id="Path_372" class="st35" d="M958.3,107.9L940,118.4l18.3,10.6l18.3-10.6L958.3,107.9z"/>
				
					<linearGradient id="Path_373_1_" gradientUnits="userSpaceOnUse" x1="5.38" y1="388.9623" x2="4.6863" y2="388.8307" gradientTransform="matrix(106.3 0 0 -40.92 429.69 16045.4492)">
					<stop  offset="0" style="stop-color:#E7F2FE"/>
					<stop  offset="5.100000e-02" style="stop-color:#E5EFFE"/>
					<stop  offset="0.646" style="stop-color:#CAD6FA"/>
					<stop  offset="0.999" style="stop-color:#C1CDF8"/>
				</linearGradient>
				<path id="Path_373" class="st58" d="M958.3,141.4l-39.7-22.9v7.6l39.7,22.9l39.7-22.9v-7.6L958.3,141.4z"/>
				<g id="Group_159">
					
						<linearGradient id="Path_374_1_" gradientUnits="userSpaceOnUse" x1="19.0242" y1="388.5995" x2="19.0242" y2="389.3775" gradientTransform="matrix(25.6628 0 0 -99.9589 470.218 38958.0898)">
						<stop  offset="0" style="stop-color:#83E8FE"/>
						<stop  offset="0.184" style="stop-color:#76D0FD"/>
						<stop  offset="0.547" style="stop-color:#5EA5FC"/>
						<stop  offset="0.831" style="stop-color:#4F8BFC"/>
						<stop  offset="0.999" style="stop-color:#4981FB"/>
					</linearGradient>
					<path id="Path_374" class="st59" d="M958.5,109L958.5,109c-2.7-0.1-5.2-1.5-6.8-3.7l-0.1-0.1c-2.4-3.4-2.4-7.9,0-11.3l6-7.7
						l-7.8-10.2c-1.4-1.9-1.3-4.5,0.2-6.3l7.3-7.8l-6.8-7.2c-0.9-1-1.3-2.3-1.2-3.6c0-1.2,0.5-2.4,1.4-3.3l6.5-5.8l-7.4-6.1
						c-0.3-0.2-0.3-0.7-0.1-0.9c0.2-0.3,0.7-0.3,0.9-0.1l0,0l7.6,6.2l7.8-6.8c0.3-0.2,0.7-0.2,0.9,0.1c0.2,0.3,0.2,0.7-0.1,0.9
						l-7.7,6.7l6.6,5.5c0.9,0.8,1.5,2,1.5,3.3c0.1,1.3-0.3,2.6-1.2,3.6l-7,7.5l7.6,8.1c1.5,1.8,1.6,4.4,0.2,6.4l-7.7,9.9l5.9,7.7
						c2.4,3.4,2.4,8,0,11.4C963.7,107.6,961.2,108.9,958.5,109z M958.5,87.4l-5.8,7.4c-2,2.9-2,6.7,0,9.6l0.1,0.1
						c1.3,1.9,3.4,3.1,5.7,3.1h0c2.3-0.1,4.4-1.2,5.7-3.1c2-2.9,2-6.8,0-9.7L958.5,87.4z M958.3,63l-7.3,7.7
						c-1.1,1.3-1.1,3.2-0.2,4.6l7.6,9.9l7.5-9.6c1-1.4,0.9-3.3-0.1-4.6L958.3,63z M958.3,43l-6.7,5.9c-0.6,0.6-1,1.5-1,2.3
						c-0.1,0.9,0.2,1.9,0.8,2.6l6.8,7.2l7-7.4c0.6-0.7,0.9-1.7,0.8-2.7c0-0.9-0.4-1.7-1-2.3L958.3,43z"/>
					<path id="Path_375" class="st25" d="M952.6,51.3c0,1.3-1.1,2.4-2.4,2.4c-1.3,0-2.4-1.1-2.4-2.4c0-1.3,1.1-2.4,2.4-2.4
						C951.5,48.9,952.6,50,952.6,51.3C952.6,51.3,952.6,51.3,952.6,51.3z"/>
					<path id="Path_376" class="st25" d="M969.1,51.3c0,1.3-1.1,2.4-2.4,2.4c-1.3,0-2.4-1.1-2.4-2.4c0-1.3,1.1-2.4,2.4-2.4l0,0
						C968,48.9,969.1,50,969.1,51.3C969.1,51.3,969.1,51.3,969.1,51.3z"/>
					<circle id="Ellipse_4" class="st25" cx="949.6" cy="73.3" r="2.4"/>
					<path id="Path_377" class="st25" d="M969.6,73.3c0,1.3-1.1,2.4-2.4,2.4s-2.4-1.1-2.4-2.4c0-1.3,1.1-2.4,2.4-2.4l0,0
						C968.6,70.9,969.6,72,969.6,73.3C969.6,73.3,969.6,73.3,969.6,73.3z"/>
					<path id="Path_378" class="st25" d="M960.9,86c0,1.3-1.1,2.4-2.4,2.4c-1.3,0-2.4-1.1-2.4-2.4c0-1.3,1.1-2.4,2.4-2.4
						C959.8,83.6,960.9,84.7,960.9,86C960.9,86,960.9,86,960.9,86z"/>
					<path id="Path_379" class="st25" d="M960.6,62.3c0,1.3-1.1,2.4-2.4,2.4c-1.3,0-2.4-1.1-2.4-2.4c0-1.3,1.1-2.4,2.4-2.4
						C959.5,59.9,960.6,61,960.6,62.3C960.6,62.3,960.6,62.3,960.6,62.3z"/>
					<path id="Path_380" class="st25" d="M960.9,42c0,1.3-1.1,2.4-2.4,2.4c-1.3,0-2.4-1.1-2.4-2.4c0-1.3,1.1-2.4,2.4-2.4
						C959.8,39.6,960.9,40.7,960.9,42C960.9,42,960.9,42,960.9,42z"/>
					<path id="Path_381" class="st25" d="M969.1,34.9c0,1.3-1.1,2.4-2.4,2.4c-1.3,0-2.4-1.1-2.4-2.4c0-1.3,1.1-2.4,2.4-2.4l0,0
						C968,32.5,969.1,33.6,969.1,34.9C969.1,34.9,969.1,34.9,969.1,34.9z"/>
					<circle id="Ellipse_5" class="st25" cx="949.6" cy="36.1" r="2.4"/>
				</g>
				
					<linearGradient id="Path_382_1_" gradientUnits="userSpaceOnUse" x1="14.8031" y1="388.6993" x2="14.8031" y2="389.446" gradientTransform="matrix(33.24 0 0 -147.38 466.22 57426.7422)">
					<stop  offset="0" style="stop-color:#83E8FE"/>
					<stop  offset="1" style="stop-color:#FFFFFF;stop-opacity:0"/>
				</linearGradient>
				<path id="Path_382" class="st60" d="M945.9,118.2l12.4,7.2l12.4-7.2V22.4l-12.4-7.2l-12.4,7.2V118.2z"/>
			</g>
			<g id="Group_163">
				<g id="Group_161">
					<path id="Path_383" class="st61" d="M982.6,157.4C982.6,157.4,982.5,157.4,982.6,157.4l-10.8-6.3c-0.1,0-0.1-0.1-0.1-0.2v-17.3
						l-6.2-3.6c-0.1,0-0.1-0.2-0.1-0.3s0.2-0.1,0.3-0.1c0,0,0,0,0,0l6.3,3.7c0.1,0,0.1,0.1,0.1,0.2v17.3l10.6,6.3
						c0.1,0.1,0.1,0.2,0.1,0.3c0,0,0,0,0,0C982.7,157.3,982.7,157.4,982.6,157.4z"/>
					<path id="Path_384" class="st61" d="M986.6,155C986.6,155,986.6,155,986.6,155l-10.8-6.3c-0.1,0-0.1-0.1-0.1-0.2v-17.3
						l-6.2-3.6c-0.1,0-0.1-0.2-0.1-0.3c0-0.1,0.2-0.1,0.3-0.1c0,0,0,0,0,0l6.2,3.6c0.1,0,0.1,0.1,0.1,0.2v17.3l10.6,6.3
						c0.1,0.1,0.1,0.2,0.1,0.3c0,0,0,0,0,0C986.8,155,986.7,155,986.6,155z"/>
					<path id="Path_385" class="st61" d="M990.7,152.6C990.6,152.6,990.6,152.6,990.7,152.6l-10.8-6.3c-0.1,0-0.1-0.1-0.1-0.2v-17.3
						l-6.2-3.6c-0.1,0-0.1-0.2-0.1-0.3c0-0.1,0.2-0.1,0.3-0.1c0,0,0,0,0,0l6.3,3.6c0.1,0,0.1,0.1,0.1,0.2V146l10.6,6.3
						c0.1,0.1,0.1,0.2,0.1,0.3c0,0,0,0,0,0C990.8,152.6,990.7,152.6,990.7,152.6z"/>
					<path id="Path_386" class="st61" d="M994.7,150.2C994.7,150.2,994.6,150.2,994.7,150.2l-10.8-6.3c-0.1,0-0.1-0.1-0.1-0.2v-17.3
						l-6.1-3.5c-0.1,0-0.1-0.2-0.1-0.3s0.2-0.1,0.3-0.1c0,0,0,0,0,0l6.2,3.6c0.1,0,0.1,0.1,0.1,0.2v17.3l10.6,6.3
						c0.1,0.1,0.1,0.2,0.1,0.3c0,0,0,0,0,0C994.8,150.2,994.8,150.2,994.7,150.2z"/>
				</g>
				<g id="Group_162">
					<path id="Path_387" class="st61" d="M938.5,114.4C938.5,114.4,938.5,114.4,938.5,114.4l-6.4-3.7c-0.1,0-0.1-0.2-0.1-0.3
						s0.2-0.1,0.3-0.1c0,0,0,0,0,0l6.3,3.7c0.1,0.1,0.1,0.2,0.1,0.3c0,0,0,0,0,0C938.7,114.4,938.6,114.4,938.5,114.4z"/>
					<path id="Path_388" class="st61" d="M942.6,112C942.6,112,942.5,112,942.6,112l-6.5-3.8c-0.1-0.1-0.1-0.2-0.1-0.3
						c0.1-0.1,0.2-0.1,0.2-0.1l6.4,3.7c0.1,0.1,0.1,0.2,0.1,0.3c0,0,0,0,0,0C942.7,112,942.7,112,942.6,112z"/>
					<path id="Path_389" class="st61" d="M946.7,109.7C946.6,109.7,946.6,109.7,946.7,109.7l-6.5-3.8c-0.1-0.1-0.1-0.2-0.1-0.3
						c0.1-0.1,0.2-0.1,0.2-0.1l6.4,3.8c0.1,0.1,0.1,0.2,0.1,0.3c0,0,0,0,0,0C946.8,109.7,946.7,109.7,946.7,109.7z"/>
					<path id="Path_390" class="st61" d="M950.7,107.3C950.7,107.3,950.7,107.3,950.7,107.3l-6.5-3.8c-0.1-0.1-0.1-0.2-0.1-0.3
						c0.1-0.1,0.2-0.1,0.2-0.1l6.5,3.8c0.1,0.1,0.1,0.2,0.1,0.3c0,0,0,0,0,0C950.9,107.3,950.8,107.3,950.7,107.3z"/>
				</g>
			</g>
		</g>
		<g id="Group_166">
			<path id="Path_391" class="st62" d="M1014,153.4L992.2,166c-1.6,0.9-4.4,0.8-6.2-0.3l-10-5.7c-1.8-1.1-2-2.7-0.4-3.6l21.8-12.6
				c1.6-0.9,4.4-0.8,6.2,0.3l10,5.7C1015.4,150.9,1015.6,152.5,1014,153.4z"/>
			<g id="Group_165">
				
					<linearGradient id="Path_392_1_" gradientUnits="userSpaceOnUse" x1="14.3688" y1="389.1861" x2="13.4502" y2="388.4903" gradientTransform="matrix(34.4676 0 0 -25.3626 524.3 10023.2119)">
					<stop  offset="0" style="stop-color:#E7F2FE"/>
					<stop  offset="5.100000e-02" style="stop-color:#E5EFFE"/>
					<stop  offset="0.646" style="stop-color:#CAD6FA"/>
					<stop  offset="0.999" style="stop-color:#C1CDF8"/>
				</linearGradient>
				<path id="Path_392" class="st63" d="M1015,156.1v-3.9l0,0c-0.1,0.6-0.5,1-1,1.3L992.2,166c-0.9,0.5-1.9,0.7-2.9,0.6v4.5
					c1,0.1,2-0.2,2.9-0.6l21.8-12.6C1014.7,157.6,1015.1,156.9,1015,156.1z"/>
				
					<linearGradient id="Path_393_1_" gradientUnits="userSpaceOnUse" x1="23.9557" y1="388.0313" x2="23.9557" y2="388.9985" gradientTransform="matrix(19.9304 0 0 -17.17 504.3596 6836.2793)">
					<stop  offset="7.200000e-02" style="stop-color:#87D0FD"/>
					<stop  offset="0.165" style="stop-color:#7EC3EC;stop-opacity:0.898"/>
					<stop  offset="0.349" style="stop-color:#68A0C0;stop-opacity:0.702"/>
					<stop  offset="0.608" style="stop-color:#456979;stop-opacity:0.424"/>
					<stop  offset="0.927" style="stop-color:#141E18;stop-opacity:7.800000e-02"/>
					<stop  offset="1" style="stop-color:#080C01;stop-opacity:0"/>
				</linearGradient>
				<path id="Path_393" class="st64" d="M985.9,165.8l-10-5.7c-0.7-0.3-1.3-1-1.5-1.8v3.9c-0.2,0.8,0.3,1.7,1.5,2.3l10,5.7
					c1,0.6,2.2,0.9,3.3,0.9v-4.5C988.1,166.6,986.9,166.3,985.9,165.8z"/>
				<path id="Path_394" class="st55" d="M985.9,165.8l-10-5.7c-0.7-0.3-1.3-1-1.5-1.8v3.9c-0.2,0.8,0.3,1.7,1.5,2.3l10,5.7
					c1,0.6,2.2,0.9,3.3,0.9v-4.5C988.1,166.6,986.9,166.3,985.9,165.8z"/>
			</g>
		</g>
	</g>
</g>
<g>
	<defs>
		<rect id="SVGID_11_" x="773.4" y="-33" width="373.7" height="373.7"/>
	</defs>
	<clipPath id="SVGID_12_">
		<use xlink:href="#SVGID_11_"  style="overflow:visible;"/>
	</clipPath>
	<g id="Group_176" class="st65">
		<g id="Group_171">
			<g id="Group_169">
				<g id="Group_168">
					<path id="Path_395" class="st62" d="M882,123.5l-15.3,8.8l-31.3-18l15.3-8.8L882,123.5z"/>
					
						<linearGradient id="Path_396_1_" gradientUnits="userSpaceOnUse" x1="25.8924" y1="389.2209" x2="23.792" y2="388.6506" gradientTransform="matrix(20.46 0 0 -48.96 360.39 19187.7676)">
						<stop  offset="0" style="stop-color:#E7F2FE"/>
						<stop  offset="5.100000e-02" style="stop-color:#E5EFFE"/>
						<stop  offset="0.646" style="stop-color:#CAD6FA"/>
						<stop  offset="0.999" style="stop-color:#C1CDF8"/>
					</linearGradient>
					<path id="Path_396" class="st66" d="M882,123.5v27.8l-15.3,8.8v-27.8L882,123.5z"/>
					<path id="Path_397" class="st55" d="M835.5,114.2V142l31.3,18v-27.8L835.5,114.2z"/>
				</g>
			</g>
			<g id="Group_170">
				
					<linearGradient id="Path_398_1_" gradientUnits="userSpaceOnUse" x1="15.7226" y1="387.5508" x2="14.9184" y2="388.0486" gradientTransform="matrix(34.7 0 0 -19.71 333.9 7764.8828)">
					<stop  offset="0" style="stop-color:#FFFFFF"/>
					<stop  offset="0.614" style="stop-color:#DAE1FB"/>
					<stop  offset="0.999" style="stop-color:#C1CDF8"/>
				</linearGradient>
				<path id="Path_398" class="st67" d="M846.9,118.2l14.7,8.4l11.3-6.1l-15-8.6L846.9,118.2z"/>
				<path id="Path_399" class="st55" d="M846.9,118.2l-2.3-14.7l16.3,9.4l0.7,13.8L846.9,118.2z"/>
			</g>
		</g>
		<g id="Group_175">
			<g id="Group_173">
				<g id="Group_172">
					<path id="Path_400" class="st62" d="M970.2,175l-15.3,8.8l-31.3-18l15.3-8.8L970.2,175z"/>
					
						<linearGradient id="Path_401_1_" gradientUnits="userSpaceOnUse" x1="24.4378" y1="389.5768" x2="22.3374" y2="389.0065" gradientTransform="matrix(20.46 0 0 -48.96 478.29 19256.7266)">
						<stop  offset="0" style="stop-color:#E7F2FE"/>
						<stop  offset="5.100000e-02" style="stop-color:#E5EFFE"/>
						<stop  offset="0.646" style="stop-color:#CAD6FA"/>
						<stop  offset="0.999" style="stop-color:#C1CDF8"/>
					</linearGradient>
					<path id="Path_401" class="st68" d="M970.2,175v27.8l-15.3,8.8v-27.8L970.2,175z"/>
					<path id="Path_402" class="st55" d="M923.6,165.8v27.8l31.3,18v-27.8L923.6,165.8z"/>
				</g>
			</g>
			<g id="Group_174">
				
					<linearGradient id="Path_403_1_" gradientUnits="userSpaceOnUse" x1="14.8645" y1="388.4348" x2="14.0602" y2="388.9326" gradientTransform="matrix(34.7 0 0 -19.72 451.81 7837.7402)">
					<stop  offset="0" style="stop-color:#FFFFFF"/>
					<stop  offset="0.614" style="stop-color:#DAE1FB"/>
					<stop  offset="0.999" style="stop-color:#C1CDF8"/>
				</linearGradient>
				<path id="Path_403" class="st69" d="M935.1,169.8l14.7,8.4l11.3-6.1l-15-8.6L935.1,169.8z"/>
				<path id="Path_404" class="st55" d="M935.1,169.8l-2.3-14.7l16.3,9.4l0.7,13.8L935.1,169.8z"/>
			</g>
		</g>
	</g>
</g>
<g>
	<defs>
		<rect id="SVGID_13_" x="773.4" y="-33" width="373.7" height="373.7"/>
	</defs>
	<clipPath id="SVGID_14_">
		<use xlink:href="#SVGID_13_"  style="overflow:visible;"/>
	</clipPath>
	<g id="Group_183" class="st70">
		<g id="Group_177">
			<path id="Path_405" class="st50" d="M1013.2,157.2L1013.2,157.2c-1,0.2-1.9-0.5-2-1.4l-1.3-7.2c-0.2-1,0.5-1.9,1.4-2l0,0
				c1-0.2,1.9,0.5,2,1.4l1.3,7.2C1014.8,156.2,1014.2,157.1,1013.2,157.2z"/>
			<path id="Path_406" class="st71" d="M1014.7,150l-0.8-4.4c-0.3-1.5-1.7-2.5-3.2-2.2l0,0c-1.5,0.3-2.5,1.7-2.2,3.2l0.8,4.4
				C1009.3,151,1011.7,153.1,1014.7,150z"/>
			<path id="Path_407" class="st50" d="M1021.1,157.9L1021.1,157.9c-0.3,0.9-1.3,1.4-2.2,1.2l-6.1-1.8c-1-0.1-1.7-0.9-1.6-1.9
				c0,0,0,0,0,0l0,0c0.1-1,0.9-1.7,1.9-1.6l6.9,1.9C1020.8,156,1021.4,156.9,1021.1,157.9C1021.1,157.9,1021.1,157.9,1021.1,157.9z"
				/>
		</g>
		<g id="Group_179">
			<g id="Group_178">
				<path id="Path_408" class="st44" d="M1002.2,185.8c-0.1,0.8,1.8,1.2,3.3,2.1c2.1,1.2,4.4,1.9,5.5,1.3c0.2-0.1,0.4-0.3,0.4-0.6
					v-1.3c0-0.7-1-1.8-2.6-3.4c-1.8-1.7-2.9-2.8-5.5-1.3c-0.8,0.4-1.1,0.8-1.1,1L1002.2,185.8z"/>
				<path id="Path_409" class="st72" d="M1008.8,183.9c2.1,2.1,3.3,3.3,2.2,3.9c-1.1,0.6-3.3-0.3-5.5-2c-2-1.5-4.9-1.7-2.2-3.2
					C1005.9,181.1,1007.1,182.2,1008.8,183.9z"/>
			</g>
			<path id="Path_410" class="st61" d="M1007.1,182.4c0.1-0.2,0.1-0.3,0.1-0.5v-18.3c0-1.2-1.2-2.1-2.7-2.1l0,0
				c-1.5,0-2.7,0.9-2.7,2.1v19.9c0,0.3,0.2,0.6,0.5,0.6C1003.4,184.5,1005.8,184.9,1007.1,182.4z"/>
		</g>
		<g id="Group_181">
			<g id="Group_180">
				<path id="Path_411" class="st44" d="M1007.9,181.5c-0.1,0.8,1.8,1.2,3.3,2.1c2.1,1.2,4.4,1.9,5.5,1.3c0.2-0.1,0.4-0.3,0.4-0.6
					v-1.3c0-0.7-1-1.8-2.6-3.4c-1.8-1.7-2.9-2.8-5.5-1.3c-0.8,0.4-1.1,0.8-1.1,1L1007.9,181.5z"/>
				<path id="Path_412" class="st72" d="M1014.6,179.7c2.1,2.1,3.3,3.3,2.2,3.9c-1.1,0.6-3.3-0.3-5.5-2c-2-1.5-4.9-1.7-2.2-3.2
					C1011.7,176.9,1012.8,178,1014.6,179.7z"/>
			</g>
			<path id="Path_413" class="st73" d="M1012.9,178.2c0.1-0.2,0.1-0.3,0.1-0.5v-18.3c0-1.2-1.2-2.1-2.7-2.1l0,0
				c-1.5,0-2.7,0.9-2.7,2.1v19.9c0,0.3,0.2,0.6,0.5,0.6C1009.2,180.2,1011.6,180.6,1012.9,178.2z"/>
		</g>
		<path id="Path_414" class="st74" d="M1002.8,166.9c0.1,0,0.1,0.1,0.2,0.1c1.2,0.1,5.4-0.8,9.6-5.6c0.3-0.4,0.5-0.9,0.6-1.4v-13.5
			c0.1-0.8-0.3-1.6-0.9-2.1l-3.2-1.9c-0.7-0.4-1.6-0.3-2.3,0.2l-4.3,2.5c-1.9,1.2-3.1,3.3-3.2,5.5v13.6c0,0.3,0.1,0.5,0.3,0.7
			L1002.8,166.9z"/>
		<path id="Path_415" class="st75" d="M1004,146.1c0,0.4,0.3,0.8,0.7,0.9c1,0.5,2.2,0.5,3.2,0c0.4-0.2,0.6-0.5,0.7-0.9v-2.9
			c0-0.4-0.3-0.8-0.7-0.9c-1-0.5-2.2-0.5-3.2,0c-0.4,0.2-0.6,0.5-0.7,0.9V146.1z"/>
		<circle id="Ellipse_6" class="st76" cx="1006.3" cy="138.4" r="6.2"/>
		<path id="Path_416" class="st77" d="M1001.1,131.1c-5.3,1.8-2.7,9.5,1.2,12.3c1.9-1-0.4-2.9,2.2-1.6c0.5-2.5-0.6-1.7,0.1-4.8
			c2.7,1.4,7.9-0.3,8.7-2.9c-0.9-0.4-1.9-3.1-4.1-4C1006.3,128.8,1002.7,129.4,1001.1,131.1z"/>
		<path id="Path_417" class="st76" d="M1004.2,141.9c0,0.7-0.5,1-1.2,0.7c-0.7-0.4-1.1-1.2-1.2-2c0-0.7,0.5-1,1.2-0.7
			C1003.7,140.3,1004.2,141.1,1004.2,141.9z"/>
		<path id="Path_418" class="st37" d="M1001.9,157.9l9.7,5.6l9.7-5.6v-4.2l-9.7-5.6l-9.7,5.6V157.9z"/>
		<path id="Path_419" class="st35" d="M1011.6,148.1l-9.7,5.6l9.7,5.5l9.7-5.5L1011.6,148.1z"/>
		<g id="Group_182">
			<path id="Path_420" class="st50" d="M1002.2,161.5L1002.2,161.5c-1,0.1-1.8-0.5-2-1.5l-1-7.2c-0.1-1,0.5-1.8,1.5-2l0,0
				c1-0.1,1.8,0.5,2,1.5l1,7.2C1003.8,160.5,1003.2,161.4,1002.2,161.5z"/>
			<path id="Path_421" class="st71" d="M1003.9,154.4l-0.6-4.4c-0.2-1.5-1.6-2.5-3.1-2.3l0,0c-1.5,0.2-2.5,1.6-2.3,3.1l0.6,4.4
				C998.6,155.1,1000.8,157.4,1003.9,154.4z"/>
			<path id="Path_422" class="st50" d="M1011.9,163.2L1011.9,163.2c-0.3,0.9-1.3,1.4-2.2,1.1l-7.9-2.7c-1-0.1-1.7-1-1.6-1.9
				c0,0,0,0,0,0l0,0c0.1-1,1-1.7,1.9-1.6c0,0,0,0,0,0l8.7,2.9C1011.8,161.2,1012.3,162.3,1011.9,163.2z"/>
		</g>
	</g>
</g>
<g>
	<defs>
		<rect id="SVGID_15_" x="773.4" y="-33" width="373.7" height="373.7"/>
	</defs>
	<clipPath id="SVGID_16_">
		<use xlink:href="#SVGID_15_"  style="overflow:visible;"/>
	</clipPath>
	<g id="Group_194" class="st78">
		<g id="Group_188">
			<path id="Path_423" class="st62" d="M823.5,163.5l-15.8,9.1c-1.7,1-2.4,3.1-1.6,4.9l5,10.7c0.5,1.2,1.6,2,2.9,2.2l23.9,3.7
				c0.9,0.1,1.7,0,2.5-0.5l15.8-9.1c1.7-1,2.4-3.1,1.6-4.9l-5-10.7c-0.5-1.2-1.6-2-2.9-2.2l-23.9-3.7
				C825.1,162.9,824.3,163.1,823.5,163.5z"/>
			<g id="Group_184">
				
					<linearGradient id="Path_424_1_" gradientUnits="userSpaceOnUse" x1="7.9076" y1="389.1636" x2="7.9076" y2="389.8744" gradientTransform="matrix(69.9426 0 0 -190.5309 278.9099 74471.0391)">
					<stop  offset="0" style="stop-color:#E7F2FE;stop-opacity:0"/>
					<stop  offset="5.100000e-02" style="stop-color:#E5EFFE;stop-opacity:5.100000e-02"/>
					<stop  offset="0.646" style="stop-color:#CAD6FA;stop-opacity:0.647"/>
					<stop  offset="0.999" style="stop-color:#C1CDF8"/>
				</linearGradient>
				<path id="Path_424" class="st79" d="M858.1,181.2c0,1.4-0.7,2.6-1.9,3.3l-15.8,9.1c-0.8,0.4-1.6,0.6-2.5,0.5l-23.9-3.7
					c-1.3-0.2-2.3-1-2.9-2.2l-5-10.7c-0.2-0.4-0.3-0.9-0.3-1.3v124.2c0,0.5,0.1,1.1,0.3,1.6l5,10.7c0.5,1.2,1.6,2,2.9,2.2l23.9,3.7
					c0.9,0.1,1.7,0,2.5-0.5l15.8-9.1c1.3-0.7,2-2.1,1.9-3.6V181.2z"/>
			</g>
			<g id="Group_185">
				<path id="Path_425" class="st25" d="M840.4,181c-0.8,0.4-1.6,0.6-2.5,0.5l-23.9-3.7c-1.3-0.2-2.3-1-2.9-2.2l-0.3-0.6v1.5
					c0,0.4,0.1,0.9,0.3,1.2l4,8.6c0.4,0.9,1.3,1.6,2.3,1.7l19.3,3c0.7,0.1,1.4,0,2-0.4l12.7-7.3c1-0.6,1.6-1.7,1.5-2.9v-6.8
					L840.4,181z"/>
			</g>
			<g id="Group_187">
				<path id="Path_426" class="st62" d="M823.5,145.6l-15.8,9.1c-1.7,1-2.4,3.1-1.6,4.9l5,10.7c0.5,1.2,1.6,2,2.9,2.2l23.9,3.7
					c0.9,0.1,1.7,0,2.5-0.5l15.8-9.1c1.7-1,2.4-3.1,1.6-4.9l-5-10.7c-0.5-1.2-1.6-2-2.9-2.2l-23.9-3.7
					C825.1,145,824.3,145.1,823.5,145.6z"/>
				<g id="Group_186">
					
						<linearGradient id="Path_427_1_" gradientUnits="userSpaceOnUse" x1="8.2398" y1="389.0205" x2="7.5215" y2="389.0466" gradientTransform="matrix(69.9526 0 0 -31.1409 278.9099 12284.8887)">
						<stop  offset="0" style="stop-color:#E7F2FE"/>
						<stop  offset="5.100000e-02" style="stop-color:#E5EFFE"/>
						<stop  offset="0.646" style="stop-color:#CAD6FA"/>
						<stop  offset="0.999" style="stop-color:#C1CDF8"/>
					</linearGradient>
					<path id="Path_427" class="st80" d="M858.1,163.3c0,1.4-0.7,2.6-1.9,3.3l-15.8,9.1c-0.8,0.4-1.6,0.6-2.5,0.5l-23.9-3.7
						c-1.3-0.2-2.3-1-2.9-2.2l-5-10.7c-0.2-0.4-0.3-0.9-0.3-1.3v5.1c0,0.5,0.1,1.1,0.3,1.6l5,10.7c0.5,1.2,1.6,2,2.9,2.2l23.9,3.7
						c0.9,0.1,1.7,0,2.5-0.5l15.8-9.1c1.3-0.7,2-2.1,1.9-3.6L858.1,163.3L858.1,163.3z"/>
				</g>
				
					<linearGradient id="Path_428_1_" gradientUnits="userSpaceOnUse" x1="10.0796" y1="389.1356" x2="9.3105" y2="388.8381" gradientTransform="matrix(56.4678 0 0 -33.6442 285.6261 13247.543)">
					<stop  offset="0" style="stop-color:#83E8FE"/>
					<stop  offset="0.184" style="stop-color:#76D0FD"/>
					<stop  offset="0.547" style="stop-color:#5EA5FC"/>
					<stop  offset="0.831" style="stop-color:#4F8BFC"/>
					<stop  offset="0.999" style="stop-color:#4981FB"/>
				</linearGradient>
				<path id="Path_428" class="st81" d="M825.1,148.5l-12.7,7.3c-1.4,0.8-1.9,2.5-1.3,4l4,8.6c0.4,0.9,1.3,1.6,2.3,1.7l19.3,3
					c0.7,0.1,1.4,0,2-0.4l12.7-7.3c1.4-0.8,1.9-2.5,1.3-4l-4-8.6c-0.4-0.9-1.3-1.6-2.3-1.7l-19.3-3
					C826.5,148,825.7,148.1,825.1,148.5z"/>
				
					<linearGradient id="Path_429_1_" gradientUnits="userSpaceOnUse" x1="9.2765" y1="388.931" x2="10.0441" y2="388.2374" gradientTransform="matrix(56.4561 0 0 -20.9787 285.6483 8308.0117)">
					<stop  offset="0" style="stop-color:#83E8FE"/>
					<stop  offset="0.184" style="stop-color:#76D0FD"/>
					<stop  offset="0.547" style="stop-color:#5EA5FC"/>
					<stop  offset="0.831" style="stop-color:#4F8BFC"/>
					<stop  offset="0.999" style="stop-color:#4981FB"/>
				</linearGradient>
				<path id="Path_429" class="st82" d="M812.4,157.7l12.7-7.3c0.6-0.4,1.3-0.5,2-0.4l19.3,3c1,0.2,1.9,0.8,2.3,1.7l4,8.6
					c0.1,0.1,0.1,0.2,0.1,0.4c0.2-0.7,0.2-1.5-0.1-2.3l-4-8.6c-0.4-0.9-1.3-1.6-2.3-1.7l-19.3-3c-0.7-0.1-1.4,0-2,0.4l-12.7,7.3
					c-1.2,0.7-1.8,2.2-1.4,3.6C811.3,158.7,811.8,158.1,812.4,157.7z"/>
			</g>
		</g>
		<g id="Group_193">
			<path id="Path_430" class="st62" d="M913.1,214.4l-15.8,9.1c-1.7,1-2.4,3.1-1.6,4.9l5,10.7c0.5,1.2,1.6,2,2.9,2.2l23.9,3.7
				c0.9,0.1,1.7,0,2.5-0.5l15.8-9.1c1.7-1,2.4-3.1,1.6-4.9l-5-10.7c-0.5-1.2-1.6-2-2.9-2.2l-23.9-3.7
				C914.8,213.8,913.9,214,913.1,214.4z"/>
			<g id="Group_189">
				
					<linearGradient id="Path_431_1_" gradientUnits="userSpaceOnUse" x1="7.4736" y1="389.2538" x2="7.4736" y2="389.9646" gradientTransform="matrix(69.9527 0 0 -190.521 398.8099 74535.2188)">
					<stop  offset="0" style="stop-color:#E7F2FE;stop-opacity:0"/>
					<stop  offset="0.339" style="stop-color:#E5EFFE;stop-opacity:5.100000e-02"/>
					<stop  offset="0.646" style="stop-color:#CAD6FA;stop-opacity:0.647"/>
					<stop  offset="0.999" style="stop-color:#C1CDF8"/>
					<stop  offset="1" style="stop-color:#C1CDF8"/>
				</linearGradient>
				<path id="Path_431" class="st83" d="M947.7,232.1c0,1.4-0.7,2.6-1.9,3.3l-15.8,9.1c-0.8,0.4-1.6,0.6-2.5,0.5l-23.9-3.7
					c-1.3-0.2-2.3-1-2.9-2.2l-5-10.7c-0.2-0.4-0.3-0.9-0.3-1.3v124.2c0,0.5,0.1,1.1,0.3,1.6l5,10.7c0.5,1.2,1.6,2,2.9,2.2l23.9,3.7
					c0.9,0.1,1.7,0,2.5-0.5l15.8-9.1c1.3-0.7,2-2.1,1.9-3.6V232.1z"/>
			</g>
			<g id="Group_190">
				<path id="Path_432" class="st25" d="M930.1,231.9c-0.8,0.4-1.6,0.6-2.5,0.5l-23.9-3.7c-1.3-0.2-2.3-1-2.9-2.2l-0.3-0.6v1.5
					c0,0.4,0.1,0.9,0.3,1.2l4,8.6c0.4,0.9,1.3,1.6,2.3,1.7l19.3,3c0.7,0.1,1.4,0,2-0.4l12.7-7.3c1-0.6,1.6-1.7,1.5-2.9v-6.8
					L930.1,231.9z"/>
			</g>
			<g id="Group_192">
				<path id="Path_433" class="st62" d="M913.1,196.5l-15.8,9.1c-1.7,1-2.4,3.1-1.6,4.9l5,10.7c0.5,1.2,1.6,2,2.9,2.2l23.9,3.7
					c0.9,0.1,1.7,0,2.5-0.5l15.8-9.1c1.7-1,2.4-3.1,1.6-4.9l-5-10.7c-0.5-1.2-1.6-2-2.9-2.2l-23.9-3.7
					C914.8,195.9,913.9,196,913.1,196.5z"/>
				<g id="Group_191">
					
						<linearGradient id="Path_434_1_" gradientUnits="userSpaceOnUse" x1="7.807" y1="389.5719" x2="7.0887" y2="389.5988" gradientTransform="matrix(69.9527 0 0 -31.131 398.8099 12349.0508)">
						<stop  offset="0" style="stop-color:#E7F2FE"/>
						<stop  offset="5.100000e-02" style="stop-color:#E5EFFE"/>
						<stop  offset="0.646" style="stop-color:#CAD6FA"/>
						<stop  offset="0.999" style="stop-color:#C1CDF8"/>
					</linearGradient>
					<path id="Path_434" class="st84" d="M947.7,214.1c0,1.4-0.7,2.6-1.9,3.3l-15.8,9.1c-0.8,0.4-1.6,0.6-2.5,0.5l-23.9-3.7
						c-1.3-0.2-2.3-1-2.9-2.2l-5-10.7c-0.2-0.4-0.3-0.9-0.3-1.3v5.1c0,0.5,0.1,1.1,0.3,1.6l5,10.7c0.5,1.2,1.6,2,2.9,2.2l23.9,3.7
						c0.9,0.1,1.7,0,2.5-0.5l15.8-9.1c1.3-0.7,2-2.1,1.9-3.6V214.1z"/>
				</g>
				
					<linearGradient id="Path_435_1_" gradientUnits="userSpaceOnUse" x1="9.5433" y1="389.6472" x2="8.7742" y2="389.3489" gradientTransform="matrix(56.4684 0 0 -33.6452 405.5458 13316.0029)">
					<stop  offset="0" style="stop-color:#83E8FE"/>
					<stop  offset="0.184" style="stop-color:#76D0FD"/>
					<stop  offset="0.547" style="stop-color:#5EA5FC"/>
					<stop  offset="0.831" style="stop-color:#4F8BFC"/>
					<stop  offset="0.999" style="stop-color:#4981FB"/>
				</linearGradient>
				<path id="Path_435" class="st85" d="M914.8,199.4l-12.7,7.3c-1.4,0.8-1.9,2.5-1.3,4l4,8.6c0.4,0.9,1.3,1.6,2.3,1.7l19.3,3
					c0.7,0.1,1.4,0,2-0.4l12.7-7.3c1.4-0.8,1.9-2.5,1.3-4l-4-8.6c-0.4-0.9-1.3-1.6-2.3-1.7l-19.3-3
					C916.1,198.9,915.4,199,914.8,199.4z"/>
				
					<linearGradient id="Path_436_1_" gradientUnits="userSpaceOnUse" x1="8.7402" y1="389.7504" x2="9.5079" y2="389.056" gradientTransform="matrix(56.4561 0 0 -20.9688 405.5583 8372.1738)">
					<stop  offset="0" style="stop-color:#83E8FE"/>
					<stop  offset="0.184" style="stop-color:#76D0FD"/>
					<stop  offset="0.547" style="stop-color:#5EA5FC"/>
					<stop  offset="0.831" style="stop-color:#4F8BFC"/>
					<stop  offset="0.999" style="stop-color:#4981FB"/>
				</linearGradient>
				<path id="Path_436" class="st86" d="M902,208.6l12.7-7.3c0.6-0.4,1.3-0.5,2-0.4l19.3,3c1,0.2,1.9,0.8,2.3,1.7l4,8.6
					c0.1,0.1,0.1,0.2,0.1,0.4c0.2-0.7,0.2-1.5-0.1-2.3l-4-8.6c-0.4-0.9-1.3-1.6-2.3-1.7l-19.3-3c-0.7-0.1-1.4,0-2,0.4l-12.7,7.3
					c-1.2,0.7-1.8,2.2-1.4,3.6C900.9,209.6,901.4,209,902,208.6z"/>
			</g>
		</g>
	</g>
</g>
<g>
	<defs>
		<rect id="SVGID_17_" x="773.4" y="-33" width="373.7" height="373.7"/>
	</defs>
	<clipPath id="SVGID_18_">
		<use xlink:href="#SVGID_17_"  style="overflow:visible;"/>
	</clipPath>
	<g id="Group_206" class="st87">
		<g id="Group_204">
			<g id="Group_202">
				<g id="Group_195">
					<path id="Path_437" class="st88" d="M901,209.5L901,209.5c0.9,0.4,1.9,0,2.3-0.9l2.9-6.7c0.4-0.9,0-1.9-0.9-2.3l0,0
						c-0.9-0.4-1.9,0-2.3,0.9l-2.9,6.7C899.7,208.1,900.2,209.1,901,209.5z"/>
					<path id="Path_438" class="st55" d="M901.3,202.2l1.8-4.1c0.6-1.4,2.2-2,3.6-1.4l0,0c1.4,0.6,2,2.2,1.4,3.6l-1.8,4.1
						C906.3,204.3,903.5,205.9,901.3,202.2z"/>
					<path id="Path_439" class="st88" d="M891.2,208.5L891.2,208.5c0.1,1,0.9,1.7,1.9,1.6l8.3-0.5c1,0.2,1.9-0.5,2-1.4l0,0
						c0.2-1-0.5-1.9-1.4-2l-9.2,0.5C891.9,206.7,891.2,207.6,891.2,208.5z"/>
				</g>
				<g id="Group_196">
					<path id="Path_440" class="st89" d="M909.7,217.1c-0.1,0.2-0.3,0.3-0.4,0.4l-10,5.7c-1.1,0.6-2.6,0-3.4-1.4l0,0
						c-0.8-1.4-0.5-3,0.5-3.6l11.5-6.6c0.3-0.2,0.6-0.1,0.9,0.1C909.6,212.6,911.3,214.6,909.7,217.1z"/>
				</g>
				<g id="Group_197">
					<path id="Path_441" class="st90" d="M916.3,220.5c-0.1,0.2-0.3,0.3-0.4,0.4l-10,5.7c-1.1,0.6-2.6,0-3.4-1.4l0,0
						c-0.8-1.4-0.5-3,0.5-3.6l11.5-6.6c0.3-0.2,0.6-0.1,0.9,0.1C916.2,216,917.9,218,916.3,220.5z"/>
				</g>
				<g id="Group_199">
					<g id="Group_198">
						<path id="Path_442" class="st44" d="M900.7,237.7c0.1,0.8-1.9,1.3-3.6,2.3c-2.3,1.3-4.8,2.1-6,1.4c-0.3-0.1-0.4-0.4-0.5-0.7
							v-1.4c0-0.8,1.1-1.9,2.8-3.6c1.9-1.9,3.1-3,6-1.4c0.8,0.5,1.1,0.8,1.2,1.1L900.7,237.7z"/>
						<path id="Path_443" class="st72" d="M893.5,235.8c-2.3,2.2-3.6,3.6-2.4,4.3c1.2,0.7,3.6-0.3,6-2.2c2.1-1.6,5.2-1.8,2.4-3.5
							C896.6,232.7,895.4,233.9,893.5,235.8z"/>
					</g>
					<path id="Path_444" class="st89" d="M895.3,234.1c-0.1-0.2-0.1-0.4-0.1-0.6v-13.4c0-1.3,1.3-2.3,2.9-2.3l0,0
						c1.6,0,2.9,1,2.9,2.3v15.1c0,0.3-0.2,0.6-0.5,0.7C899.3,236.3,896.7,236.8,895.3,234.1z"/>
				</g>
				<path id="Path_445" class="st62" d="M915.3,221.7c-0.1,0-0.2,0.1-0.2,0.1c-1.3,0.1-5.8-0.9-10.4-6.1c-0.4-0.4-0.6-0.9-0.6-1.5
					v-14.6c-0.1-0.9,0.3-1.7,1-2.2l3.4-2c0.8-0.4,1.7-0.3,2.5,0.2l4.7,2.7c2,1.3,3.3,3.5,3.4,6V219c0,0.3-0.1,0.5-0.3,0.7
					L915.3,221.7z"/>
				<g id="Group_201">
					<g id="Group_200">
						<path id="Path_446" class="st44" d="M907.5,240.8c0.1,0.8-1.9,1.3-3.6,2.3c-2.3,1.3-4.8,2.1-6,1.4c-0.3-0.1-0.4-0.4-0.5-0.7
							v-1.4c0-0.8,1.1-1.9,2.8-3.6c1.9-1.9,3.1-3,6-1.4c0.8,0.5,1.1,0.8,1.2,1.1L907.5,240.8z"/>
						<path id="Path_447" class="st72" d="M900.3,238.8c-2.3,2.2-3.6,3.6-2.4,4.3c1.2,0.7,3.6-0.3,6-2.2c2.1-1.6,5.2-1.8,2.4-3.5
							C903.5,235.8,902.2,236.9,900.3,238.8z"/>
					</g>
					<path id="Path_448" class="st90" d="M902.2,237.2c-0.1-0.2-0.1-0.4-0.1-0.6v-13.4c0-1.3,1.3-2.3,2.9-2.3l0,0
						c1.6,0,2.9,1,2.9,2.3v15.1c0,0.3-0.2,0.6-0.5,0.7C906.2,239.4,903.6,239.8,902.2,237.2z"/>
				</g>
				<path id="Path_449" class="st88" d="M914.8,199.2c0,0.4-0.3,0.8-0.7,1c-1.1,0.5-2.4,0.5-3.4,0c-0.4-0.2-0.7-0.6-0.7-1V196
					c0-0.4,0.3-0.8,0.7-1c1.1-0.5,2.4-0.5,3.4,0c0.4,0.2,0.7,0.6,0.7,1V199.2z"/>
				
					<linearGradient id="Path_450_1_" gradientUnits="userSpaceOnUse" x1="23.8017" y1="387.6686" x2="24.4677" y2="387.8951" gradientTransform="matrix(17.86 0 0 -17.86 412.46 7140.1445)">
					<stop  offset="7.100000e-02" style="stop-color:#995E73"/>
					<stop  offset="0.603" style="stop-color:#895165"/>
					<stop  offset="0.999" style="stop-color:#794458"/>
				</linearGradient>
				<path id="Path_450" class="st91" d="M905.7,191c0,3.7,3,6.7,6.7,6.7c3.7,0,6.7-3,6.7-6.7s-3-6.7-6.7-6.7
					C908.7,184.3,905.7,187.3,905.7,191z"/>
				<path id="Path_451" class="st92" d="M915.9,196.2c-0.6-0.6-1.1-1.4-1.4-2.2c0-0.1,0-0.1,0-0.2v-3.2c0-0.6-0.2-1.3-0.5-1.8
					c-0.2-0.5-0.7-0.8-1.3-0.8c0,0-5.4,2.3-7.4-2c-0.1-0.3,0-0.6,0.3-0.8c0,0,0.1,0,0.1,0c0.4-0.1,0.9-0.4,1.5-1.3
					c0.1-0.2,0.4-0.3,0.6-0.3c0.9,0.2,1.8-0.1,2.4-0.9c0.1-0.1,0.3-0.2,0.4-0.2c1,0,4.5,0.2,6.5,1.6c0,0,0,0,0,0
					c0.4,0.3,7,6-0.5,12.2C916.5,196.4,916.2,196.4,915.9,196.2z"/>
				<path id="Path_452" class="st93" d="M914.6,194.7c0,0.8,0.6,1.1,1.2,0.7c0.7-0.5,1.2-1.3,1.2-2.2c0-0.8-0.6-1.1-1.2-0.7
					C915.1,193,914.6,193.8,914.6,194.7z"/>
			</g>
			<g id="Group_203">
				
					<linearGradient id="Path_453_1_" gradientUnits="userSpaceOnUse" x1="9.5104" y1="394.8888" x2="8.7053" y2="395.3866" gradientTransform="matrix(28.13 0 0 -15.99 399.03 6448.5063)">
					<stop  offset="0" style="stop-color:#FFFFFF"/>
					<stop  offset="0.614" style="stop-color:#DAE1FB"/>
					<stop  offset="0.999" style="stop-color:#C1CDF8"/>
				</linearGradient>
				<path id="Path_453" class="st94" d="M895.6,217.5l11.9,6.8l9.1-5l-12.2-7L895.6,217.5z"/>
				<path id="Path_454" class="st55" d="M895.6,217.5l-1.9-11.9l13.2,7.6l0.6,11.2L895.6,217.5z"/>
			</g>
		</g>
		<g id="Group_205">
			<path id="Path_455" class="st93" d="M915.5,215.8L915.5,215.8c1,0.1,1.8-0.5,2-1.5l1-7.2c0.1-1-0.5-1.8-1.5-2l0,0
				c-1-0.1-1.8,0.5-2,1.5l-1,7.2C913.8,214.8,914.5,215.6,915.5,215.8C915.5,215.8,915.5,215.8,915.5,215.8z"/>
			<path id="Path_456" class="st55" d="M913.7,208.6l0.6-4.4c0.2-1.5,1.6-2.5,3.1-2.3l0,0c1.5,0.2,2.5,1.6,2.3,3.1l-0.6,4.4
				C919.1,209.4,916.9,211.6,913.7,208.6z"/>
			<path id="Path_457" class="st93" d="M905.7,217.4L905.7,217.4c0.3,0.9,1.3,1.4,2.2,1.1l7.9-2.7c1-0.1,1.7-1,1.6-1.9c0,0,0,0,0,0
				l0,0c-0.1-1-1-1.7-1.9-1.6c0,0,0,0,0,0l-8.7,2.9C905.9,215.5,905.4,216.5,905.7,217.4z"/>
		</g>
	</g>
</g>
<g>
	<defs>
		<rect id="SVGID_19_" x="773.4" y="-33" width="373.7" height="373.7"/>
	</defs>
	<clipPath id="SVGID_20_">
		<use xlink:href="#SVGID_19_"  style="overflow:visible;"/>
	</clipPath>
	<g id="Group_213" class="st95">
		<g id="Group_207">
			<path id="Path_458" d="M866.5,102.2c0,0.8,1.1,1.8,2.9,2.9c2.3,1.4,3.2,3.1,6.1,1.4c0.8-0.5,1.2-0.9,1.2-1.2v-1.8
				c0.1-0.8-1.9-1.4-3.6-2.3c-2.3-1.4-4.9-2.1-6.1-1.4c-0.3,0.1-0.4,0.4-0.5,0.7L866.5,102.2L866.5,102.2z"/>
			<path id="Path_459" class="st96" d="M869.4,103.3c-2.3-1.4-3.6-2.8-2.4-3.5c1.2-0.7,3.7,0,6.1,1.4c2.3,1.4,5.3,1.8,2.4,3.5
				C872.5,106.3,871.7,104.6,869.4,103.3z"/>
		</g>
		<g id="Group_208">
			<path id="Path_460" d="M873,97.7c0,0.8,1.1,1.8,2.9,2.9c2.3,1.4,3.2,3.1,6.1,1.4c0.8-0.5,1.2-0.9,1.2-1.2V99
				c0.1-0.8-1.9-1.4-3.6-2.3c-2.3-1.4-4.9-2.1-6.1-1.4c-0.3,0.1-0.4,0.4-0.5,0.7V97.7z"/>
			<path id="Path_461" class="st96" d="M875.9,98.8c-2.3-1.4-3.6-2.8-2.4-3.5c1.2-0.7,3.7,0,6.1,1.4c2.3,1.4,5.3,1.8,2.4,3.5
				C879.1,101.9,878.2,100.1,875.9,98.8z"/>
		</g>
		<g id="Group_209">
			<path id="Path_462" class="st43" d="M875.1,43.8L875.1,43.8c1-0.3,2.1,0.3,2.4,1.3l4.4,14.4c0.3,1-0.3,2.1-1.3,2.4l0,0
				c-1,0.3-2.1-0.3-2.4-1.3l-4.4-14.4C873.5,45.1,874.1,44.1,875.1,43.8z"/>
			<path id="Path_463" class="st61" d="M876.6,58.6l1.4,4.6c0.5,1.6,2.1,2.4,3.7,2l0,0c1.6-0.5,2.4-2.1,2-3.7l-1.4-4.6
				C882.3,56.8,879.4,54.8,876.6,58.6z"/>
		</g>
		<g id="Group_210">
			<path id="Path_464" class="st97" d="M876.5,102.7c0.1-0.2,0.1-0.4,0.1-0.6V82c0-1.3-1.3-2.3-2.9-2.3l0,0c-1.6,0-2.9,1-2.9,2.3
				v21.8c0,0.3,0.2,0.6,0.5,0.7C872.5,104.9,875.1,105.4,876.5,102.7z"/>
		</g>
		<g id="Group_211">
			<path id="Path_465" class="st73" d="M882.8,98c0.1-0.2,0.1-0.4,0.1-0.6V77.3c0-1.3-1.3-2.3-2.9-2.3l0,0c-1.6,0-2.9,1-2.9,2.3
				v21.8c0,0.3,0.2,0.6,0.5,0.7C878.8,100.2,881.4,100.7,882.8,98z"/>
		</g>
		<path id="Path_466" class="st3" d="M871.8,85.6c0.1,0,0.2,0.1,0.2,0.1c1.3,0.1,5.9-0.9,10.5-6.1c0.4-0.4,0.6-0.9,0.6-1.5V63.3
			c0.1-0.9-0.3-1.8-1-2.3l-3.5-2c-0.8-0.4-1.8-0.3-2.5,0.2l-4.7,2.7c-2.1,1.3-3.3,3.6-3.5,6v14.9c0,0.3,0.1,0.6,0.3,0.7L871.8,85.6z
			"/>
		<path id="Path_467" class="st98" d="M873.2,62.9c0,0.4,0.3,0.8,0.7,1c1.1,0.6,2.4,0.6,3.5,0c0.4-0.2,0.7-0.6,0.7-1v-3.2
			c0-0.4-0.3-0.8-0.7-1c-1.1-0.6-2.4-0.6-3.5,0c-0.4,0.2-0.7,0.6-0.7,1V62.9z"/>
		<circle id="Ellipse_7" class="st43" cx="875.6" cy="54.5" r="6.8"/>
		<g id="Group_212">
			<path id="Path_468" class="st43" d="M862.5,48.4L862.5,48.4c1-0.4,2.1,0,2.5,1l5.7,13.5c0.4,1,0,2.1-1,2.5l0,0
				c-1,0.4-2.1,0-2.5-1l-5.7-13.5C861.1,50,861.5,48.8,862.5,48.4z"/>
			<path id="Path_469" class="st61" d="M865.2,62.7l2,4.4c0.7,1.5,2.4,2.2,3.9,1.5l0,0c1.5-0.7,2.2-2.4,1.5-3.9l-2-4.4
				C870.7,60.3,867.6,58.6,865.2,62.7z"/>
		</g>
		<path id="Path_470" class="st99" d="M879.4,60.6c-2.1,1.2-3.8,0.3-4.3-0.6c-1.5-2.3-1.7-0.8-2.6-1.8c-1.1-1.9-0.9-4.4-2.5-5.6
			c-2.3-1.7-1.6-5.1,4.3-6.6c7.9-2,11.1,8,6.1,13.8C880.2,60.2,879.8,60.4,879.4,60.6z"/>
		<path id="Path_471" class="st43" d="M873.3,58.5c-0.2,0.4-0.7,0.5-1.1,0.2c-0.2-0.1-0.3-0.4-0.3-0.6c-0.2-0.9,0.1-1.8,0.7-2.4
			c0.2-0.4,0.7-0.5,1.1-0.2c0.2,0.1,0.3,0.4,0.3,0.6C874.1,56.9,873.9,57.8,873.3,58.5z"/>
	</g>
</g>
<g>
	<defs>
		<rect id="SVGID_21_" x="773.4" y="-33" width="373.7" height="373.7"/>
	</defs>
	<clipPath id="SVGID_22_">
		<use xlink:href="#SVGID_21_"  style="overflow:visible;"/>
	</clipPath>
	<g id="Group_225" class="st100">
		<g id="Group_224">
			<g id="Group_214">
				
					<linearGradient id="Path_472_1_" gradientUnits="userSpaceOnUse" x1="50.6312" y1="397.9315" x2="51.1492" y2="398.5646" gradientTransform="matrix(11.7833 0 0 -20.5394 405.89 8077.1982)">
					<stop  offset="7.100000e-02" style="stop-color:#EDC3B6"/>
					<stop  offset="0.322" style="stop-color:#E6B7A5"/>
					<stop  offset="0.815" style="stop-color:#D4987A"/>
					<stop  offset="0.999" style="stop-color:#CD8B68"/>
				</linearGradient>
				<path id="Path_472" class="st101" d="M908.6,118.8L908.6,118.8c-0.8,0.4-1.8,0-2.2-0.8l-5.4-12c-0.4-0.8,0-1.8,0.8-2.2l0,0
					c0.8-0.4,1.8,0,2.2,0.8l5.4,12C909.8,117.5,909.4,118.4,908.6,118.8z"/>
				<path id="Path_473" class="st102" d="M905.7,106.1l-1.8-3.9c-0.6-1.3-2.1-1.9-3.5-1.3c0,0,0,0,0,0l0,0c-1.3,0.6-1.9,2.1-1.3,3.5
					c0,0,0,0,0,0l1.8,3.9C900.9,108.3,903.6,109.7,905.7,106.1z"/>
			</g>
			<g id="Group_216">
				
					<linearGradient id="Path_474_1_" gradientUnits="userSpaceOnUse" x1="34.9579" y1="387.6666" x2="34.0392" y2="387.926" gradientTransform="matrix(14.53 0 0 -20.1 402.64 7906.0664)">
					<stop  offset="0" style="stop-color:#E8E8FE"/>
					<stop  offset="1" style="stop-color:#BFBFF4"/>
				</linearGradient>
				<path id="Path_474" class="st103" d="M909.2,118.8l-10.9-6.3v-8.8l10.9,6.3V118.8z"/>
				<g id="Group_215">
					<path id="Path_475" class="st104" d="M906.5,116.5v-6.6l0.2,0.1v6.6L906.5,116.5z"/>
					<path id="Path_476" class="st104" d="M906,114.2v-4.7l0.2,0.1v4.7L906,114.2z"/>
					<path id="Path_477" class="st104" d="M905.5,115.3v-6.1l0.2,0.1v6.1L905.5,115.3z"/>
					<path id="Path_478" class="st104" d="M904.9,115.5v-6.6l0.2,0.1v6.6L904.9,115.5z"/>
					<path id="Path_479" class="st104" d="M904.4,111v-2.4l0.2,0.1v2.4L904.4,111z"/>
				</g>
			</g>
			<g id="Group_220">
				<g id="Group_217">
					
						<linearGradient id="Path_480_1_" gradientUnits="userSpaceOnUse" x1="72.7681" y1="387.8937" x2="72.7681" y2="387.2958" gradientTransform="matrix(6.8504 0 0 -13.5531 401.67 5370.5205)">
						<stop  offset="7.100000e-02" style="stop-color:#7549DD"/>
						<stop  offset="0.277" style="stop-color:#6A3CCC"/>
						<stop  offset="0.684" style="stop-color:#4F1CA1"/>
						<stop  offset="1" style="stop-color:#36007B"/>
					</linearGradient>
					<path id="Path_480" class="st105" d="M897.7,118.9c-0.1,0.2-0.1,0.3-0.1,0.5l0,5.7c0,1.1,1.1,2,2.5,2.1l0,0
						c1.4,0,2.6-0.9,2.6-2l0-7.3c0-0.3-0.2-0.5-0.4-0.6C901.3,117,899,116.5,897.7,118.9z"/>
				</g>
				<g id="Group_219">
					<g id="Group_218">
						<path id="Path_481" d="M885.8,130.3c-0.7,0.3-0.2,2.1-0.3,3.8c0,2.4,0.5,4.6,1.5,5.2c0.2,0.1,0.5,0.2,0.7,0.1l1.1-0.6
							c0.6-0.3,1-1.7,1.6-3.8c0.6-2.3,1-3.7-1.5-5.2c-0.7-0.4-1.1-0.5-1.4-0.4L885.8,130.3z"/>
						<path id="Path_482" class="st72" d="M890.4,135c-0.8,2.8-1.2,4.3-2.3,3.7c-1-0.6-1.3-2.9-0.9-5.6c0.3-2.3-0.9-4.9,1.7-3.3
							C891.4,131.2,891,132.7,890.4,135z"/>
					</g>
					
						<linearGradient id="Path_483_1_" gradientUnits="userSpaceOnUse" x1="32.7995" y1="380.6991" x2="32.2315" y2="381.1656" gradientTransform="matrix(20.6666 0 0 -14.1357 387.7618 5604.7119)">
						<stop  offset="7.100000e-02" style="stop-color:#7549DD"/>
						<stop  offset="0.277" style="stop-color:#6A3CCC"/>
						<stop  offset="0.684" style="stop-color:#4F1CA1"/>
						<stop  offset="1" style="stop-color:#36007B"/>
					</linearGradient>
					<path id="Path_483" class="st106" d="M890.9,132.8c0.2,0,0.3-0.1,0.5-0.1l10.4-5.8c1-0.5,1.2-2,0.5-3.2l0,0
						c-0.7-1.2-2-1.8-3-1.2l-11.7,6.5c-0.2,0.1-0.4,0.4-0.3,0.7C887.4,130.7,888.2,132.9,890.9,132.8z"/>
				</g>
			</g>
			<g id="Group_222">
				<g id="Group_221">
					<path id="Path_484" d="M892.5,141.4c-0.1,0.7,1.7,1.2,3.2,2c2.1,1.2,4.3,1.8,5.3,1.2c0.2-0.1,0.4-0.3,0.4-0.6v-1.2
						c0-0.7-1-1.7-2.5-3.2c-1.7-1.7-2.8-2.7-5.3-1.2c-0.7,0.4-1,0.7-1,1L892.5,141.4z"/>
					<path id="Path_485" class="st72" d="M898.8,139.6c2,2,3.2,3.2,2.1,3.8c-1.1,0.6-3.2-0.3-5.3-1.9c-1.9-1.4-4.7-1.6-2.1-3.1
						C896,136.9,897.1,138,898.8,139.6z"/>
				</g>
				
					<linearGradient id="Path_486_1_" gradientUnits="userSpaceOnUse" x1="73.358" y1="388.1236" x2="73.358" y2="388.942" gradientTransform="matrix(6.8201 0 0 -29.4589 394.4399 11575.0762)">
					<stop  offset="7.000000e-02" style="stop-color:#7549DD"/>
					<stop  offset="0.277" style="stop-color:#6A3CCC"/>
					<stop  offset="0.684" style="stop-color:#4F1CA1"/>
					<stop  offset="1" style="stop-color:#36007B"/>
				</linearGradient>
				<path id="Path_486" class="st107" d="M897.2,138.2c0.1-0.2,0.1-0.3,0.1-0.5v-17.6c0-1.1-1.2-2-2.5-2l0,0c-1.4,0-2.5,0.9-2.5,2
					v19.1c0,0.3,0.2,0.5,0.5,0.6C893.6,140.1,895.9,140.5,897.2,138.2z"/>
			</g>
			<path id="Path_487" class="st47" d="M893,123.2c0.1,0,0.1,0.1,0.2,0.1c1.1,0.1,5.2-0.8,9.2-5.4c0.3-0.4,0.5-0.8,0.6-1.3v-13
				c0.1-0.8-0.3-1.5-0.9-2l-3-1.8c-0.7-0.3-1.5-0.3-2.2,0.2l-4.2,2.4c-1.8,1.2-2.9,3.1-3.1,5.3v13.1c0,0.2,0.1,0.5,0.3,0.6
				L893,123.2z"/>
			<path id="Path_488" class="st75" d="M894.2,103.3c0,0.4,0.3,0.7,0.6,0.9c1,0.5,2.1,0.5,3,0c0.4-0.2,0.6-0.5,0.6-0.9v-2.8
				c0-0.4-0.3-0.7-0.6-0.9c-1-0.5-2.1-0.5-3,0c-0.4,0.2-0.6,0.5-0.6,0.9V103.3z"/>
			<g id="Group_223">
				
					<linearGradient id="Path_489_1_" gradientUnits="userSpaceOnUse" x1="51.6136" y1="375.9899" x2="51.0187" y2="376.632" gradientTransform="matrix(12.4576 0 0 -20.2245 380.5362 7958.792)">
					<stop  offset="7.100000e-02" style="stop-color:#EDC3B6"/>
					<stop  offset="0.322" style="stop-color:#E6B7A5"/>
					<stop  offset="0.815" style="stop-color:#D4987A"/>
					<stop  offset="0.999" style="stop-color:#CD8B68"/>
				</linearGradient>
				<path id="Path_489" class="st108" d="M882.7,121.8L882.7,121.8c-0.8-0.4-1.2-1.4-0.7-2.3l5.9-11.7c0.4-0.8,1.4-1.2,2.3-0.7l0,0
					c0.8,0.4,1.2,1.4,0.7,2.3l-5.9,11.7C884.6,121.9,883.6,122.3,882.7,121.8z"/>
				<path id="Path_490" class="st102" d="M890.8,111.6l1.9-3.8c0.6-1.3,0.1-2.9-1.2-3.5l0,0c-1.3-0.6-2.9-0.1-3.5,1.2l-1.9,3.8
					C886.2,109.3,886.7,112.2,890.8,111.6z"/>
			</g>
			
				<linearGradient id="Ellipse_8_1_" gradientUnits="userSpaceOnUse" x1="40.1269" y1="395.1996" x2="40.5843" y2="395.6488" gradientTransform="matrix(15.86 0 0 -15.86 392.16 6234.0298)">
				<stop  offset="7.100000e-02" style="stop-color:#EDC3B6"/>
				<stop  offset="0.322" style="stop-color:#E6B7A5"/>
				<stop  offset="0.815" style="stop-color:#D4987A"/>
				<stop  offset="0.999" style="stop-color:#CD8B68"/>
			</linearGradient>
			<circle id="Ellipse_8" class="st109" cx="896.4" cy="95.9" r="5.9"/>
			<path id="Path_491" class="st110" d="M891.5,88.9c-5.1,1.7-2.5,9.1,1.1,11.8c1.8-1-0.4-2.7,2.1-1.5c0.5-2.4-0.6-1.7,0.1-4.6
				c2.6,1.3,7.6-0.3,8.4-2.8c-0.9-0.4-1.8-2.9-3.9-3.9C896.5,86.7,893,87.2,891.5,88.9z"/>
			<path id="Path_492" class="st43" d="M894.4,99.3c0,0.7-0.5,1-1.1,0.6c-0.7-0.4-1.1-1.1-1.1-1.9c0-0.7,0.5-1,1.1-0.6
				C894,97.8,894.4,98.5,894.4,99.3z"/>
		</g>
		<path id="Path_493" class="st96" d="M900.2,96.1c-1.1,0.8-1.8,2.1-1.8,3.5c0,1.4,0.8,2,1.8,1.4c1.1-0.8,1.8-2.1,1.8-3.5
			C902,96.2,901.2,95.6,900.2,96.1z M900.2,98.6c-0.6,0.4-1.1,0.4-1.1,0.2s0.5-0.8,1.1-1.1c0.6-0.4,1.1-0.4,1.1-0.2
			S900.8,98.3,900.2,98.6z"/>
	</g>
</g>
<polygon class="st111" points="1083,332.4 989.3,378.9 895.7,332.4 989.3,283.8 "/>
<polygon class="st112" points="1059.9,332.1 989.3,367.2 918.7,332.1 989.3,295.5 "/>
<polygon class="st113" points="1033.9,331.8 989.3,354 944.7,331.8 989.3,308.7 "/>
</svg>
